<?xml version="1.0" encoding="utf-8"?>
<!-- Generator: Adobe Illustrator 24.1.2, SVG Export Plug-In . SVG Version: 6.00 Build 0)  -->
<svg version="1.1" id="Icons" xmlns="http://www.w3.org/2000/svg" xmlns:xlink="http://www.w3.org/1999/xlink" x="0px" y="0px"
	 width="102px" height="102px" viewBox="0 0 102 102" style="enable-background:new 0 0 102 102;" xml:space="preserve">
<style type="text/css">
	.st0{fill:url(#SVGID_1_);}
</style>
<linearGradient id="SVGID_1_" gradientUnits="userSpaceOnUse" x1="51" y1="0" x2="51" y2="102">
	<stop  offset="0" style="stop-color:#00FBFF"/>
	<stop  offset="1" style="stop-color:#00B1B4"/>
</linearGradient>
<path class="st0" d="M98.4,43.8L98.4,43.8l-2.8-1.3l0-0.1L93,13.8C92.6,6.1,86.2,0,78.4,0S64.3,6.1,63.8,13.8l-2.5,28.7l-2.8,1.3
	c-2.2,0.9-3.7,3.1-3.7,5.5V51c0,0.5,0.4,1,1,1c0.5,0,1-0.4,1-1v-1.7c0-1.6,1-3.1,2.5-3.7l11.3-5.3c1.8-1,2.8-2.3,2.8-3.9v-3.3l1,0.6
	c1.3,0.9,2.8,1.4,3.9,1.4c1.3,0,2.8-0.6,4.2-1.6l1-0.7v3.6c0,1,0.4,2.8,2.9,3.9l11.3,5.3c1.5,0.6,2.4,2.1,2.4,3.7V51
	c0,0.5,0.4,1,1,1c0.5,0,1-0.4,1-1v-1.7C102,46.9,100.6,44.8,98.4,43.8z M87.1,38.5c-1.5-0.7-1.7-1.5-1.7-2.1v-5.9l0.1-0.2
	c1.3-1.9,2.2-4.2,2.7-6.6c0-0.3,0-0.5-0.2-0.7c-0.1-0.2-0.4-0.4-0.6-0.4c-0.3,0-0.5,0-0.7,0.2c-0.2,0.1-0.4,0.4-0.4,0.6
	c-0.7,3.8-2.4,6.1-3.6,7.4c-1.4,1.5-3.2,2.4-4.4,2.4c-0.8,0-4.3-1-6.6-5.5c-0.9-1.8-1.4-4-1.4-6.5c0-0.9,0.6-1.7,1.5-1.9
	c6.5-1.3,9.6-7.5,10.6-10.1c0.2-0.5-0.1-1.1-0.6-1.3c-0.5-0.2-1.1,0.1-1.3,0.6c-2.7,6.9-7.3,8.5-9.1,8.9c-1.8,0.4-3.1,2-3.1,3.8
	c0,2.8,0.5,5.2,1.6,7.4c0.4,0.8,0.9,1.6,1.4,2.3l0.1,0.2l0,0.3v5c0,0.5-0.2,1.3-1.7,2.1l-6.3,3l2.4-27.6C66.2,7.2,71.7,2,78.4,2
	c6.7,0,12.2,5.2,12.6,11.9l2.4,27.6L87.1,38.5z M97.8,53.2H59.1c-2.3,0-4.2,1.9-4.2,4.2c0,2.3,1.9,4.2,4.2,4.2H73l-0.2,0.8
	c-0.1,0.5-0.2,1-0.2,1.5c0,1,0.3,2,0.8,2.9l0.5,0.9H28.1l0.5-0.9c0.5-0.9,0.8-1.9,0.8-2.9c0-0.5-0.1-1-0.2-1.5L29,61.6h14
	c2.3,0,4.2-1.9,4.2-4.2c0-2.3-1.9-4.2-4.2-4.2H4.2c-2.3,0-4.2,1.9-4.2,4.2c0,2.3,1.9,4.2,4.2,4.2h14l-0.2,0.8
	c-0.1,0.5-0.2,1-0.2,1.5c0,3.2,2.6,5.8,5.8,5.8h24.8L14,100.3c-0.3,0.3-0.4,0.7-0.3,1.1c0.1,0.4,0.5,0.6,0.9,0.6h72.6
	c0.4,0,0.8-0.3,0.9-0.6c0.1-0.4,0-0.8-0.3-1.1L53.6,69.7h24.8c3.2,0,5.8-2.6,5.8-5.8c0-0.5-0.1-1-0.2-1.5l-0.2-0.8h13.9
	c2.3,0,4.2-1.9,4.2-4.2C102,55.1,100.1,53.2,97.8,53.2z M23.6,67.7c-2.1,0-3.9-1.7-3.9-3.9c0-2.1,1.7-3.9,3.9-3.9s3.9,1.7,3.9,3.9
	C27.4,66,25.7,67.7,23.6,67.7z M27.4,59.5C26.4,58.5,25,58,23.6,58c-1.4,0-2.8,0.5-3.8,1.5l-0.2,0.2H4.2c-1.2,0-2.2-1-2.2-2.2
	s1-2.2,2.2-2.2H43c1.2,0,2.2,1,2.2,2.2s-1,2.2-2.2,2.2H27.6L27.4,59.5z M49.9,71V100h-5V75.4L49.9,71z M37.8,81.8l5-4.5V100h-5V81.8
	z M35.7,100h-5V88.1l5-4.5V100z M28.6,89.9V100H17.3L28.6,89.9z M64.2,100h-5V77.3l5,4.5V100z M66.2,83.6l5,4.5V100h-5V83.6z
	 M73.3,100V89.9L84.7,100H73.3z M57.1,75.4V100h-5V70.9L57.1,75.4z M78.4,67.7c-2.1,0-3.9-1.7-3.9-3.9c0-2.1,1.7-3.9,3.9-3.9
	c2.1,0,3.9,1.7,3.9,3.9C82.3,66,80.6,67.7,78.4,67.7z M97.8,59.6H82.5l-0.2-0.2c-1.1-0.9-2.4-1.5-3.8-1.5s-2.8,0.5-3.8,1.5l-0.2,0.2
	H59.1c-1.2,0-2.2-1-2.2-2.2c0-1.2,1-2.2,2.2-2.2h38.7c1.2,0,2.2,1,2.2,2.2C100,58.6,99,59.6,97.8,59.6z M1,52c0.5,0,1-0.4,1-1v-1.7
	c0-1.6,1-3,2.4-3.5l10.3-3.9c1.6-0.6,2.7-2.2,2.7-3.9v-4.4l1.1,1c1.4,1.3,3.2,2,5.1,2c1.9,0,3.7-0.7,5.1-2l1.5-1.3v4.7
	c0,1.8,1.1,3.3,2.7,3.9l9.9,3.9c1.5,0.6,2.4,2,2.4,3.5V51c0,0.5,0.4,1,1,1c0.5,0,1-0.4,1-1v-1.7c0-2.4-1.4-4.5-3.7-5.4L33.5,40
	c-0.9-0.3-1.4-1.2-1.4-2.1v-6.7l0.1-0.2c1.1-1.3,1.8-2.8,2.1-4.5l0.2-1.1c0.1-0.4,0.2-0.8,0.2-1.2l0.1-0.2l0.1-0.1
	c1-1.3,1.6-2.9,1.6-4.6c0-0.6-0.2-1.2-0.6-1.6l-0.2-0.2l0-0.3c0-0.8,0.1-1.6,0.1-2.5v-4c0-4.7-3.8-8.5-8.5-8.5h-7.6
	c-4.7,0-8.5,3.8-8.5,8.5v4.4c0,0.7,0,1.4,0.1,2.2l0,0.3l-0.2,0.2c-0.4,0.4-0.6,1-0.6,1.6c0,1.7,0.6,3.4,1.6,4.7l0.1,0.2l0.5,2.3
	c0.4,1.8,1.2,3.5,2.5,4.9l0.2,0.2v6.2c0,0.9-0.6,1.8-1.4,2.1L3.7,43.9c-2.2,0.8-3.7,3-3.7,5.4V51C0,51.5,0.4,52,1,52z M14.8,26.2
	l-0.2-1.1c-0.7-3.1-1.2-5.8-1.3-9.4l0-0.6l0.6-0.1c9-1,14.3-5.3,14.5-5.4c0.4-0.3,0.5-1,0.1-1.4c-0.3-0.4-1-0.5-1.4-0.1
	c0,0-4.8,3.9-13.1,5l-0.7,0.1v-2.3c0-3.6,2.9-6.5,6.5-6.5h7.6c3.6,0,6.5,2.9,6.5,6.5v4c0,4.4-0.6,7.3-1.2,10.4l-0.2,0.9
	c-0.4,1.8-1.3,3.4-2.6,4.7l-2.4,2.2c-1,0.9-2.4,1.5-3.8,1.5s-2.7-0.5-3.8-1.5l-2.4-2.2C16,29.6,15.1,28,14.8,26.2z"/>
</svg>
