<?xml version="1.0" encoding="utf-8"?>
<!-- Generator: Adobe Illustrator 24.1.2, SVG Export Plug-In . SVG Version: 6.00 Build 0)  -->
<svg version="1.1" id="Icons" xmlns="http://www.w3.org/2000/svg" xmlns:xlink="http://www.w3.org/1999/xlink" x="0px" y="0px"
	 width="126px" height="102px" viewBox="0 0 126 102" style="enable-background:new 0 0 126 102;" xml:space="preserve">
<style type="text/css">
	.st0{fill:url(#SVGID_1_);}
</style>
<linearGradient id="SVGID_1_" gradientUnits="userSpaceOnUse" x1="62.9851" y1="0" x2="62.9851" y2="102">
	<stop  offset="0" style="stop-color:#B0FFF9"/>
	<stop  offset="1" style="stop-color:#00FBFF"/>
</linearGradient>
<path class="st0" d="M37.6,64.8l-0.4-0.4c-0.5-0.5-0.5-1.4,0-1.9c0.5-0.5,1.4-0.5,1.9,0l0.4,0.4c0.5,0.5,0.5,1.4,0,1.9
	c-0.3,0.3-0.6,0.4-1,0.4C38.2,65.2,37.9,65,37.6,64.8z M46.1,67.1c-0.5-0.5-1.4-0.5-1.9,0c-0.5,0.5-0.5,1.4,0,1.9l0.5,0.5
	c0.3,0.3,0.6,0.4,1,0.4c0.3,0,0.7-0.1,1-0.4c0.5-0.5,0.5-1.4,0-1.9L46.1,67.1z M52.1,76c0.3,0,0.7-0.1,1-0.4c0.5-0.5,0.5-1.4,0-1.9
	L52.3,73c-0.5-0.5-1.4-0.5-1.9,0c-0.5,0.5-0.5,1.4,0,1.9l0.8,0.8C51.4,75.9,51.8,76,52.1,76z M57.3,80.3c-0.5-0.5-1.4-0.5-1.9,0
	c-0.5,0.5-0.5,1.4,0,1.9l0.6,0.6c0.3,0.3,0.6,0.4,1,0.4c0.3,0,0.7-0.1,1-0.4c0.5-0.5,0.5-1.4,0-1.9L57.3,80.3z M125.6,33.3l-8.2,8.2
	c0,0,0,0,0,0l-4.5,4.5c-0.3,0.3-0.6,0.4-1,0.4c-0.4,0-0.7-0.1-1-0.4l-1.7-1.7L90.8,62.8c0.8,1,1.3,2.2,1.3,3.5
	c0,1.4-0.6,2.8-1.6,3.8l-0.7,0.7c-0.8,0.8-1.7,1.3-2.8,1.5c0.9,2,0.6,4.4-1.1,6.1L85.4,79c-1,1-2.4,1.6-3.8,1.6
	c-1.1,0-2.1-0.3-3-0.9c-0.2,0.9-0.7,1.8-1.4,2.5l-0.7,0.7c-1,1-2.4,1.6-3.8,1.6c0,0,0,0,0,0c-0.8,0-1.6-0.2-2.3-0.5
	c-0.2,1-0.7,2-1.5,2.8l-0.6,0.6c-1,1-2.4,1.6-3.8,1.6c-1.4,0-2.8-0.5-3.8-1.6l-1-1l-0.3,0.3c-1,1-2.4,1.6-3.8,1.6
	c-1.4,0-2.8-0.6-3.8-1.6l-0.2-0.2c-0.9-0.9-1.4-2.1-1.5-3.3c-0.4,0.1-0.9,0.2-1.3,0.2c-1.4,0-2.8-0.5-3.8-1.6l-0.5-0.5
	c-1.1-1.1-1.6-2.7-1.5-4.2c-0.1,0-0.2,0-0.3,0c-1.4,0-2.8-0.6-3.8-1.6l-0.4-0.4c-1.4-1.4-1.8-3.3-1.4-5.1c-1.3-0.1-2.4-0.6-3.3-1.5
	c0,0-0.1-0.1-0.1-0.1c-2.1-2.1-2.1-5.5,0-7.6l0.3-0.3L17.5,44l-2.3,2.3c-0.3,0.3-0.6,0.4-1,0.4c-0.3,0-0.7-0.1-1-0.4l-4.5-4.5
	c0,0,0,0,0,0l-8.5-8.5c-0.5-0.5-0.5-1.4,0-1.9c0.5-0.5,1.4-0.5,1.9,0L9.8,39l13.5-13.5L36.8,12l-7.5-7.5c-0.5-0.5-0.5-1.4,0-1.9
	c0.5-0.5,1.4-0.5,1.9,0l8.5,8.5l4.5,4.5c0.3,0.3,0.4,0.6,0.4,1s-0.1,0.7-0.4,1l-2.8,2.8l3.8,3.8h6.7l1.6-1.6c0.2-0.3,0.6-0.4,1-0.4
	h26.5l3-3L81.9,17c-0.3-0.3-0.4-0.6-0.4-1c0-0.4,0.1-0.7,0.4-1l4.5-4.5c0,0,0,0,0,0l8.2-8.2c0.5-0.5,1.4-0.5,1.9,0
	c0.5,0.5,0.5,1.4,0,1.9l-7.3,7.3l27.2,27.2l7.3-7.3c0.5-0.5,1.4-0.5,1.9,0C126.1,31.9,126.1,32.8,125.6,33.3z M41.2,16.5l-2.5-2.5
	l-0.1,0.1L11.7,40.9l2.5,2.5L41.2,16.5z M35.5,66.5c1,1,2.8,1,3.8,0l0.1-0.1l1.1-1.1c0.7-0.7,0.7-2,0-2.7l-1.1-1.1
	c-0.4-0.4-0.8-0.6-1.4-0.6c-0.5,0-1,0.2-1.4,0.6l-1.2,1.2C34.4,63.7,34.4,65.4,35.5,66.5C35.5,66.4,35.5,66.5,35.5,66.5z M44.4,73.5
	l3.3-3.3c0.4-0.4,0.6-0.8,0.6-1.4c0-0.5-0.2-1-0.6-1.4c0,0,0,0,0,0l-1.4-1.4c-0.4-0.4-0.9-0.6-1.4-0.6c-0.5,0-1,0.2-1.4,0.6
	l-1.7,1.7l-0.6,0.6c0,0,0,0,0,0l-1,1c-1,1-1,2.7,0,3.8l0.4,0.4C41.7,74.5,43.4,74.5,44.4,73.5z M50.7,79.7l3.5-3.5
	c0.4-0.4,0.6-0.8,0.6-1.4c0-0.5-0.2-1-0.6-1.4l-1.6-1.6c-0.4-0.4-0.8-0.6-1.4-0.6c-0.5,0-1,0.2-1.4,0.6l-0.2,0.2c0,0,0,0,0,0
	l-3.3,3.3c-1,1-1,2.7,0,3.8l0.5,0.5C47.9,80.8,49.6,80.8,50.7,79.7z M57.5,84.6l1.3-1.3c0.7-0.7,0.7-2,0-2.7l-1.3-1.3
	c-0.4-0.4-0.9-0.6-1.4-0.6c-0.5,0-1,0.2-1.4,0.6l-0.1,0.1l-1.2,1.2c-1,1-1,2.7,0,3.8l0.2,0.2C54.7,85.6,56.5,85.6,57.5,84.6z
	 M89.4,66.3c0-0.7-0.3-1.4-0.8-1.9L88,63.7c0,0,0,0,0,0s0,0,0,0L57.7,33.5l-3.2,3.2c-1.8,1.8-4.2,2.8-6.7,2.8c-2.5,0-4.9-1-6.7-2.8
	c-0.5-0.5-0.5-1.4,0-1.9l8-8h-4.5c-0.4,0-0.7-0.1-1-0.4l-4.2-4.2l-20,19.9L36,58.7c0.6-0.3,1.3-0.5,2-0.5c1.2,0,2.4,0.5,3.3,1.4
	l1.1,1.1c0,0,0,0,0,0c0.7,0.7,1.1,1.5,1.2,2.3c1.6-0.4,3.3-0.1,4.5,1.2l1.4,1.4c0.8,0.8,1.3,1.9,1.3,3.1c0.1,0,0.2,0,0.3,0
	c1.2,0,2.4,0.5,3.3,1.4l1.6,1.6c0,0,0,0,0,0c0.9,0.9,1.4,2,1.4,3.3c0,0.5-0.1,1-0.2,1.4c0.8,0.2,1.6,0.6,2.2,1.2l1.3,1.3
	c1.5,1.5,1.7,3.7,0.8,5.4l1.1,1.1c1,1,2.7,1,3.8,0l0.6-0.6c1-1,1-2.7,0-3.8L55.7,69.7l-5.2-5.2c-0.5-0.5-0.5-1.4,0-1.9
	c0.5-0.5,1.4-0.5,1.9,0l18.3,18.3c0.5,0.5,1.2,0.8,1.9,0.8c0.7,0,1.4-0.3,1.9-0.8l0.7-0.7c0.5-0.5,0.8-1.2,0.8-1.9
	c0-0.7-0.3-1.4-0.8-1.9L56.9,58.1c0,0,0,0,0,0l-2.2-2.2c-0.5-0.5-0.5-1.4,0-1.9c0.5-0.5,1.4-0.5,1.9,0l20.5,20.5c0,0,0,0,0,0
	l2.5,2.5c1,1,2.7,1,3.8,0l0.6-0.6c1-1,1-2.7,0-3.8L65.8,54.4c0,0,0,0,0,0L59,47.6c-0.5-0.5-0.5-1.4,0-1.9c0.5-0.5,1.4-0.5,1.9,0
	l23.2,23.2c1,1,2.7,1,3.8,0l0.7-0.7C89.1,67.7,89.4,67,89.4,66.3z M62.8,34.7l1.3-1.3h-2.5L62.8,34.7z M107.3,42.5L85.8,21l-3.4,3.4
	c-0.3,0.3-0.6,0.4-1,0.4H54.9L44.1,35.6c1.1,0.7,2.4,1.1,3.7,1.1c1.8,0,3.5-0.7,4.8-2l3.6-3.6c0.3-0.3,0.6-0.4,1-0.4h14.2
	c0.7,0,1.4,0.6,1.4,1.4c0,0.7-0.6,1.4-1.4,1.4h-2.2c3,6.6,9.5,10.9,16.9,10.9c0.7,0,1.4,0.6,1.4,1.4c0,0.7-0.6,1.4-1.4,1.4
	c-8.4,0-15.9-4.9-19.3-12.4l-2,2l24.2,24.2L107.3,42.5z M114.5,40.6l-1-1L87.3,13.4L84.7,16l27.2,27.2L114.5,40.6z M38.9,92.7
	l-0.1-0.1c-0.7-0.4-1.5-0.1-1.8,0.5c-0.4,0.7-0.1,1.5,0.5,1.8l0.1,0c0.2,0.1,0.5,0.2,0.7,0.2c0.5,0,0.9-0.2,1.2-0.7
	C39.7,93.9,39.5,93.1,38.9,92.7z M91.3,90.4c-0.7,0.4-0.9,1.2-0.5,1.8c0.2,0.4,0.7,0.7,1.2,0.7c0.2,0,0.4-0.1,0.6-0.2l0.1-0.1
	c0.6-0.4,0.8-1.2,0.5-1.8C92.8,90.2,91.9,90,91.3,90.4z M83.3,95c-0.7,0.3-1,1.1-0.7,1.8c0.2,0.5,0.7,0.8,1.2,0.8
	c0.2,0,0.4,0,0.5-0.1l0.1-0.1c0.7-0.3,0.9-1.1,0.6-1.8C84.8,95,84,94.7,83.3,95z M65.4,99.3c-0.7,0-1.3,0.6-1.3,1.4
	c0,0.7,0.6,1.3,1.4,1.3c0,0,0,0,0,0l0.1,0c0.7,0,1.3-0.7,1.2-1.4C66.8,99.8,66.2,99.2,65.4,99.3z M74.6,98l-0.1,0
	c-0.7,0.2-1.2,0.9-1,1.7c0.2,0.6,0.7,1,1.3,1c0.1,0,0.2,0,0.3,0l0.1,0c0.7-0.2,1.2-0.9,1-1.6C76.1,98.3,75.4,97.8,74.6,98z
	 M79.1,96.7l-0.1,0c-0.7,0.3-1.1,1-0.8,1.7c0.2,0.6,0.7,0.9,1.3,0.9c0.2,0,0.3,0,0.5-0.1l0,0c0.7-0.2,1.1-1,0.9-1.7
	C80.6,96.9,79.8,96.5,79.1,96.7z M87.4,92.9c-0.7,0.4-0.9,1.2-0.5,1.8c0.2,0.4,0.7,0.7,1.2,0.7c0.2,0,0.4-0.1,0.6-0.2l0.1-0.1
	c0.6-0.4,0.8-1.2,0.5-1.8C88.9,92.7,88.1,92.5,87.4,92.9z M43,94.9l-0.1-0.1c-0.7-0.3-1.5,0-1.8,0.7c-0.3,0.7,0,1.5,0.7,1.8l0.1,0
	c0.2,0.1,0.4,0.1,0.6,0.1c0.5,0,1-0.3,1.2-0.8C44,96,43.7,95.2,43,94.9z M70.1,98.9L70.1,98.9c-0.8,0.1-1.3,0.8-1.2,1.5
	c0.1,0.7,0.7,1.2,1.3,1.2c0.1,0,0.1,0,0.2,0l0.1,0c0.7-0.1,1.3-0.8,1.1-1.5C71.5,99.3,70.8,98.8,70.1,98.9z M47.3,96.6l-0.1,0
	c-0.7-0.2-1.5,0.2-1.7,0.9c-0.2,0.7,0.2,1.5,0.9,1.7l0,0c0.2,0.1,0.3,0.1,0.5,0.1c0.6,0,1.1-0.3,1.3-0.9
	C48.3,97.6,48,96.9,47.3,96.6z M51.6,97.9c-0.7-0.2-1.5,0.2-1.7,1c-0.2,0.7,0.2,1.5,1,1.7l0.1,0c0.1,0,0.2,0,0.3,0
	c0.6,0,1.1-0.4,1.3-1.1C52.8,98.8,52.4,98.1,51.6,97.9z M56.2,98.8L56.2,98.8c-0.8-0.1-1.5,0.4-1.6,1.1c-0.1,0.7,0.4,1.4,1.1,1.5
	l0.1,0c0.1,0,0.1,0,0.2,0c0.7,0,1.2-0.5,1.3-1.2C57.5,99.6,57,98.9,56.2,98.8z M60.9,99.3l-0.1,0c-0.7,0-1.4,0.6-1.4,1.3
	c0,0.7,0.6,1.4,1.3,1.4l0.1,0c0,0,0.1,0,0.1,0c0.7,0,1.3-0.6,1.4-1.3C62.2,100,61.6,99.3,60.9,99.3z M33.1,90.5
	c-0.4,0.6-0.3,1.4,0.3,1.9c0,0,0,0,0.1,0c0.2,0.2,0.5,0.2,0.7,0.2c0.4,0,0.9-0.2,1.1-0.6c0.4-0.6,0.3-1.5-0.4-1.9
	C34.3,89.7,33.5,89.9,33.1,90.5z M44.4,6.5c0.2,0,0.3,0,0.5-0.1c0.7-0.3,1-1.1,0.7-1.8c-0.3-0.7-1.1-1-1.8-0.7l0,0
	c-0.7,0.3-1,1.1-0.7,1.8C43.3,6.1,43.8,6.5,44.4,6.5z M48.9,4.9c0.1,0,0.3,0,0.4-0.1l0.1,0c0.7-0.2,1.1-1,0.9-1.7
	c-0.2-0.7-1-1.1-1.7-0.9l-0.1,0c-0.7,0.2-1.1,1-0.9,1.7C47.8,4.5,48.3,4.9,48.9,4.9z M72.7,3.6L72.7,3.6c0.2,0,0.3,0,0.4,0
	c0.6,0,1.2-0.4,1.3-1.1c0.1-0.7-0.3-1.4-1.1-1.6l-0.1,0c-0.7-0.1-1.4,0.3-1.6,1.1C71.5,2.8,72,3.5,72.7,3.6z M77.3,4.8l0.1,0
	c0.1,0,0.3,0.1,0.4,0.1c0.6,0,1.1-0.4,1.3-1c0.2-0.7-0.2-1.5-0.9-1.7l-0.1,0c-0.7-0.2-1.5,0.2-1.7,0.9C76.2,3.8,76.6,4.5,77.3,4.8z
	 M63.3,2.7L63.3,2.7c0.8,0,1.4-0.6,1.4-1.4S64.1,0,63.3,0h-0.1c-0.7,0-1.4,0.6-1.4,1.4S62.5,2.7,63.3,2.7z M58.4,3c0,0,0.1,0,0.1,0
	l0.1,0c0.7-0.1,1.3-0.7,1.2-1.5c-0.1-0.7-0.7-1.3-1.5-1.2l-0.1,0C57.5,0.3,57,1,57.1,1.7C57.1,2.4,57.7,3,58.4,3z M53.6,3.7
	c0.1,0,0.2,0,0.3,0l0.1,0C54.7,3.5,55.2,2.8,55,2c-0.1-0.7-0.9-1.2-1.6-1.1l-0.1,0c-0.7,0.1-1.2,0.9-1.1,1.6
	C52.4,3.2,53,3.7,53.6,3.7z M68,2.9L68,2.9c0.1,0,0.2,0,0.2,0c0.7,0,1.3-0.5,1.3-1.2c0.1-0.7-0.5-1.4-1.2-1.5l-0.1,0
	c-0.7-0.1-1.4,0.5-1.5,1.2C66.7,2.2,67.3,2.9,68,2.9z M81.8,6.4c0.2,0.1,0.3,0.1,0.5,0.1c0.5,0,1-0.3,1.3-0.8
	c0.3-0.7-0.1-1.5-0.7-1.8l0,0c-0.7-0.3-1.5,0.1-1.7,0.8C80.8,5.3,81.1,6.1,81.8,6.4z M98.2,84.6h-6.3c-0.7,0-1.4,0.6-1.4,1.4
	c0,0.7,0.6,1.4,1.4,1.4h5v5c0,0.7,0.6,1.4,1.4,1.4c0.7,0,1.4-0.6,1.4-1.4v-6.3C99.6,85.2,99,84.6,98.2,84.6z M34.5,84.6h-6.3
	c-0.7,0-1.4,0.6-1.4,1.4v6.3c0,0.7,0.6,1.4,1.4,1.4s1.4-0.6,1.4-1.4v-5h5c0.7,0,1.4-0.6,1.4-1.4C35.9,85.2,35.3,84.6,34.5,84.6z
	 M15,62.6c0.7-0.2,1.2-0.9,1-1.6c-0.2-0.7-0.9-1.2-1.6-1.1c-0.7,0.2-1.2,0.9-1.1,1.6c0,0,0,0.1,0,0.1c0.1,0.6,0.7,1,1.3,1
	C14.8,62.7,14.9,62.6,15,62.6z M17.1,65.4l0-0.1c-0.2-0.7-1-1.1-1.7-0.9c-0.7,0.2-1.1,1-0.9,1.7l0,0.1c0.2,0.6,0.7,1,1.3,1
	c0.1,0,0.3,0,0.4-0.1C17,66.9,17.4,66.1,17.1,65.4z M14.1,58.1c0.7-0.1,1.3-0.8,1.2-1.5c-0.1-0.7-0.8-1.3-1.5-1.2
	c-0.7,0.1-1.3,0.7-1.2,1.5c0,0,0,0.1,0,0.1c0.1,0.7,0.7,1.2,1.3,1.2C14,58.1,14,58.1,14.1,58.1z M13.6,53.5
	C13.6,53.5,13.6,53.5,13.6,53.5c0.8,0,1.4-0.7,1.4-1.4c0-0.7-0.6-1.4-1.4-1.3c-0.7,0-1.3,0.6-1.3,1.4c0,0,0,0.1,0,0.1
	C12.3,53,12.9,53.5,13.6,53.5z M18.7,69.6C18.7,69.6,18.6,69.5,18.7,69.6c-0.3-0.8-1.1-1.1-1.8-0.8c-0.7,0.3-1,1.1-0.7,1.8l1.3-0.4
	l-1.2,0.5c0.2,0.5,0.7,0.8,1.2,0.8c0.2,0,0.4,0,0.5-0.1C18.6,71.1,19,70.3,18.7,69.6z M22.9,77.5l-0.1-0.1c-0.4-0.6-1.3-0.8-1.9-0.4
	c-0.6,0.4-0.8,1.3-0.4,1.9l0,0c0.3,0.4,0.7,0.6,1.1,0.6c0.2,0,0.5-0.1,0.7-0.2C23.1,79,23.3,78.2,22.9,77.5z M25.4,81
	c-0.5-0.6-1.3-0.6-1.9-0.2c-0.6,0.5-0.7,1.3-0.2,1.9c0,0,0,0,0,0c0.3,0.3,0.7,0.5,1,0.5c0.3,0,0.6-0.1,0.8-0.3
	C25.8,82.6,25.9,81.7,25.4,81C25.5,81.1,25.4,81.1,25.4,81z M20.5,73.6c-0.4-0.7-1.2-0.9-1.8-0.6c-0.7,0.4-0.9,1.2-0.6,1.8l0,0.1
	c0.2,0.4,0.7,0.7,1.1,0.7c0.2,0,0.5-0.1,0.7-0.2C20.7,75.1,20.9,74.2,20.5,73.6z M112.5,58.9c-0.7-0.1-1.4,0.3-1.6,1.1l0,0.1
	c-0.1,0.7,0.4,1.4,1.1,1.6c0.1,0,0.2,0,0.2,0c0.6,0,1.2-0.5,1.3-1.1l0-0.1C113.7,59.7,113.2,59,112.5,58.9z M111.5,63.4
	c-0.7-0.2-1.5,0.2-1.7,0.9l0,0.1c-0.2,0.7,0.2,1.5,1,1.7c0.1,0,0.2,0,0.4,0c0.6,0,1.1-0.4,1.3-1l0-0.1
	C112.7,64.3,112.2,63.6,111.5,63.4z M113,54.3c-0.7-0.1-1.4,0.5-1.5,1.3c-0.1,0.7,0.5,1.4,1.2,1.5c0,0,0.1,0,0.1,0
	c0.7,0,1.3-0.5,1.3-1.2l0-0.1C114.3,55,113.7,54.4,113,54.3z M113,49.7c-0.7,0-1.4,0.6-1.4,1.4v0.1c0,0.7,0.6,1.4,1.4,1.4
	c0.7,0,1.4-0.6,1.4-1.4V51C114.4,50.3,113.8,49.7,113,49.7z M110.2,67.8c-0.7-0.3-1.5,0.1-1.8,0.8l0,0.1c-0.3,0.7,0.1,1.5,0.8,1.7
	c0.2,0.1,0.3,0.1,0.5,0.1c0.5,0,1.1-0.3,1.3-0.9l0-0.1C111.2,68.8,110.9,68,110.2,67.8z M106.3,76.1c-0.6-0.4-1.5-0.2-1.9,0.5
	c-0.4,0.6-0.2,1.5,0.4,1.9c0.2,0.1,0.5,0.2,0.7,0.2c0.5,0,0.9-0.2,1.2-0.6l0-0.1C107.1,77.3,106.9,76.5,106.3,76.1z M101.9,80.2
	L101.9,80.2c-0.5,0.7-0.4,1.5,0.2,2c0.2,0.2,0.5,0.3,0.8,0.3c0.4,0,0.8-0.2,1.1-0.5l0-0.1c0.5-0.6,0.3-1.4-0.3-1.9
	C103.2,79.5,102.3,79.6,101.9,80.2z M108.4,72c-0.7-0.3-1.5-0.1-1.8,0.6l0,0.1c-0.3,0.7-0.1,1.5,0.6,1.8c0.2,0.1,0.4,0.1,0.6,0.1
	c0.5,0,1-0.3,1.2-0.7l0-0.1C109.4,73.2,109.1,72.4,108.4,72z"/>
</svg>
