<?xml version="1.0" encoding="utf-8"?>
<!-- Generator: Adobe Illustrator 24.1.2, SVG Export Plug-In . SVG Version: 6.00 Build 0)  -->
<svg version="1.1" id="Icons" xmlns="http://www.w3.org/2000/svg" xmlns:xlink="http://www.w3.org/1999/xlink" x="0px" y="0px"
	 width="98.9px" height="104px" viewBox="0 0 98.9 104" style="enable-background:new 0 0 98.9 104;" xml:space="preserve">
<style type="text/css">
	.st0{fill:url(#SVGID_1_);}
</style>
<linearGradient id="SVGID_1_" gradientUnits="userSpaceOnUse" x1="49.456" y1="0" x2="49.456" y2="104">
	<stop  offset="0" style="stop-color:#00FBFF"/>
	<stop  offset="1" style="stop-color:#00B1B4"/>
</linearGradient>
<path class="st0" d="M91.9,61.4c0-14.2-7-26.7-17.6-34.5l2.3-3.3c4.1,3,7.7,6.6,10.7,10.7c0.2,0.3,0.6,0.5,0.9,0.5c0,0,0.1,0,0.1,0
	c0.4,0,0.8-0.3,0.9-0.6c0.9-1.7,1.4-3.6,1.4-5.6c0-6.2-3.1-12.1-8.2-15.6c-3.2-2.2-6.9-3.4-10.8-3.4c-2.3,0-4.6,0.4-6.7,1.2
	c-2.3,0.9-3.8,2.3-4.7,3.3c-0.3,0.3-0.4,0.7-0.2,1.1c0.1,0.4,0.4,0.7,0.8,0.8c4.9,1.3,9.6,3.5,13.9,6.3l-2.3,3.3
	c-6.3-4.1-13.8-6.5-21.9-6.8v-1.6c2.5-0.5,4.4-2.8,4.4-5.5c0-3.1-2.5-5.6-5.6-5.6c-3.1,0-5.6,2.5-5.6,5.6c0,2.7,1.9,4.9,4.4,5.5v1.6
	c-8.1,0.2-15.6,2.7-21.9,6.8L24,22.3c4.3-2.8,8.9-4.9,13.9-6.3c0.4-0.1,0.7-0.4,0.8-0.8c0.1-0.4,0-0.8-0.2-1.1
	c-0.9-1-2.5-2.4-4.7-3.3c-2.2-0.8-4.4-1.2-6.7-1.2c-3.9,0-7.6,1.2-10.8,3.4C11,16.6,8,22.4,8,28.7c0,1.9,0.5,3.9,1.4,5.6
	c0.2,0.4,0.5,0.6,0.9,0.6c0,0,0.1,0,0.1,0c0.4,0,0.7-0.2,0.9-0.5c3-4.1,6.6-7.8,10.7-10.7l2.3,3.4C13.7,34.7,6.8,47.3,6.8,61.4
	c0,12.6,5.5,24,14.3,31.8l-2.8,5c-0.7,1.2-0.7,2.7,0,3.9c0.7,1.2,2,1.9,3.4,1.9c0,0,0,0,0,0l0.3,0c1.4,0,2.7-0.8,3.4-2l2.3-4
	c6.4,3.8,13.8,6,21.8,6c7.9,0,15.3-2.2,21.7-6l2.3,4c0.7,1.2,2,1.9,3.4,1.9l0.3,0c0,0,0,0,0,0c1.4,0,2.7-0.7,3.4-2
	c0.7-1.2,0.7-2.7,0-3.9l-2.8-4.9C86.4,85.4,91.9,74.1,91.9,61.4z M65.8,13.1c1.9-0.7,3.9-1.1,5.9-1.1c3.4,0,6.7,1,9.5,3
	c4.5,3.1,7.2,8.2,7.2,13.7c0,0.9-0.1,1.8-0.4,2.7c-6.3-8-14.9-13.9-24.6-17C64,13.9,64.8,13.4,65.8,13.1z M10.7,31.4
	c-0.3-0.9-0.4-1.8-0.4-2.7c0-5.5,2.7-10.6,7.2-13.7c2.8-1.9,6.1-3,9.5-3c2,0,4,0.4,5.9,1.1c1,0.4,1.8,0.8,2.4,1.3
	C25.6,17.4,17,23.4,10.7,31.4z M46.1,11.8c0-1.8,1.5-3.3,3.3-3.3c1.8,0,3.3,1.5,3.3,3.3c0,1.8-1.5,3.3-3.3,3.3
	C47.6,15.1,46.1,13.6,46.1,11.8z M23.3,100.9c-0.3,0.5-0.8,0.8-1.4,0.8l-0.3,0c0,0,0,0,0,0c-0.6,0-1.1-0.3-1.4-0.8
	c-0.3-0.5-0.3-1.1,0-1.6l2.6-4.6c0.9,0.7,1.8,1.4,2.8,2L23.3,100.9z M78.4,99.3c0.3,0.5,0.3,1.1,0,1.6c-0.3,0.5-0.8,0.8-1.4,0.8
	c0,0,0,0,0,0l-0.3,0c-0.6,0-1.1-0.3-1.4-0.8L73,96.8c1-0.6,1.9-1.3,2.8-2L78.4,99.3z M49.4,101.7c-22.2,0-40.2-18.1-40.2-40.2
	c0-22.2,18.1-40.2,40.2-40.2c22.2,0,40.2,18.1,40.2,40.2C89.6,83.6,71.5,101.7,49.4,101.7z M74.8,36C68,29.2,59,25.5,49.4,25.5
	c-19.8,0-35.9,16.1-35.9,35.9C13.4,71,17.2,80,24,86.8c6.8,6.8,15.8,10.5,25.4,10.5c19.8,0,35.9-16.1,35.9-35.9
	C85.3,51.8,81.6,42.8,74.8,36z M49.4,95c-9,0-17.4-3.5-23.8-9.8c-6.3-6.3-9.8-14.8-9.8-23.8c0-18.5,15.1-33.6,33.6-33.6
	c9,0,17.4,3.5,23.8,9.8C79.5,44,83,52.5,83,61.4C83,80,67.9,95,49.4,95z M49.4,59.9c-0.9,0-1.6,0.7-1.6,1.6c0,0.9,0.7,1.6,1.6,1.6
	c0.9,0,1.6-0.7,1.6-1.6C50.9,60.6,50.2,59.9,49.4,59.9z M49.4,86.7c-0.8,0-1.5,0.3-2,0.8c-0.5,0.5-0.8,1.3-0.8,2
	c0,0.8,0.3,1.5,0.8,2c0.5,0.5,1.3,0.8,2,0.8c1.6,0,2.9-1.3,2.9-2.9C52.2,88,51,86.7,49.4,86.7z M49.4,36.2c1.6,0,2.9-1.3,2.9-2.9
	c0-1.6-1.3-2.9-2.9-2.9c-1.6,0-2.9,1.3-2.9,2.9C46.5,34.9,47.8,36.2,49.4,36.2z M24.1,61.4c0-1.6-1.3-2.9-2.9-2.9
	c-0.8,0-1.5,0.3-2,0.8c-0.5,0.5-0.8,1.3-0.8,2c0,1.6,1.3,2.9,2.9,2.9C22.8,64.3,24.1,63,24.1,61.4z M77.5,58.5
	c-1.6,0-2.9,1.3-2.9,2.9c0,1.6,1.3,2.9,2.9,2.9c1.6,0,2.9-1.3,2.9-2.9C80.4,59.8,79.1,58.5,77.5,58.5z M36.4,83.9
	c-0.3-0.2-0.7-0.3-1.1-0.3c-0.8,0-1.5,0.4-1.9,1.1c-0.3,0.5-0.4,1.1-0.2,1.6c0.1,0.6,0.5,1,1,1.3c0.3,0.2,0.7,0.3,1.1,0.3
	c0.8,0,1.5-0.4,1.9-1.1C37.8,85.8,37.4,84.5,36.4,83.9z M62.4,38.9c0.3,0.2,0.7,0.3,1.1,0.3c0.8,0,1.5-0.4,1.9-1.1
	c0.3-0.5,0.4-1.1,0.2-1.6c-0.1-0.6-0.5-1-1-1.3c-0.3-0.2-0.7-0.3-1.1-0.3c-0.8,0-1.5,0.4-1.9,1.1c-0.3,0.5-0.4,1.1-0.2,1.6
	C61.5,38.2,61.9,38.6,62.4,38.9z M25,73.3c-0.4,0-0.7,0.1-1.1,0.3c-0.5,0.3-0.9,0.8-1,1.3c-0.1,0.6-0.1,1.1,0.2,1.6
	c0.4,0.7,1.1,1.1,1.9,1.1c0.4,0,0.7-0.1,1.1-0.3c1-0.6,1.4-1.9,0.8-2.9C26.5,73.8,25.8,73.3,25,73.3z M73.7,49.5
	c0.4,0,0.8-0.1,1.1-0.3c0.5-0.3,0.9-0.8,1-1.3c0.1-0.6,0.1-1.1-0.2-1.6c-0.4-0.7-1.1-1.1-1.9-1.1c-0.4,0-0.8,0.1-1.1,0.3
	c-0.5,0.3-0.9,0.8-1,1.3c-0.1,0.6-0.1,1.1,0.2,1.6C72.2,49.1,73,49.5,73.7,49.5z M26.1,45.5c-0.3-0.2-0.7-0.3-1.1-0.3
	c-0.8,0-1.5,0.4-1.9,1.1c-0.3,0.5-0.4,1.1-0.2,1.6c0.1,0.6,0.5,1,1,1.3c0.3,0.2,0.7,0.3,1.1,0.3c0.8,0,1.5-0.4,1.9-1.1
	c0.3-0.5,0.4-1.1,0.2-1.6C26.9,46.2,26.6,45.8,26.1,45.5z M74.8,73.6c-0.3-0.2-0.7-0.3-1.1-0.3c-0.8,0-1.5,0.4-1.9,1.1
	c-0.3,0.5-0.4,1.1-0.2,1.6c0.1,0.6,0.5,1,1,1.3c0.3,0.2,0.7,0.3,1.1,0.3c0.8,0,1.5-0.4,1.9-1.1c0.3-0.5,0.4-1.1,0.2-1.6
	C75.7,74.4,75.3,73.9,74.8,73.6z M35.3,39.2c0.4,0,0.7-0.1,1.1-0.3c1-0.6,1.4-1.9,0.8-2.9c-0.4-0.7-1.1-1.1-1.9-1.1
	c-0.4,0-0.7,0.1-1.1,0.3c-1,0.6-1.4,1.9-0.8,2.9C33.8,38.8,34.5,39.2,35.3,39.2z M63.4,83.6c-0.4,0-0.7,0.1-1.1,0.3
	c-0.5,0.3-0.9,0.8-1,1.3c-0.1,0.6-0.1,1.1,0.2,1.6c0.4,0.7,1.1,1.1,1.9,1.1c0.4,0,0.7-0.1,1.1-0.3c0.5-0.3,0.9-0.8,1-1.3
	c0.1-0.6,0.1-1.1-0.2-1.6C64.9,84.1,64.2,83.6,63.4,83.6z M57.9,51.3l-5.8,5.8c-0.8-0.5-1.7-0.8-2.7-0.8c-1,0-1.9,0.3-2.7,0.8
	L33.6,44c-0.5-0.5-1.2-0.5-1.6,0c-0.5,0.5-0.5,1.2,0,1.6L45,58.7c-0.5,0.8-0.8,1.7-0.8,2.7c0,2.4,1.7,4.5,4,5v17.3
	c0,0.6,0.5,1.2,1.2,1.2c0.6,0,1.2-0.5,1.2-1.2V66.4c2.3-0.5,4-2.6,4-5c0-1-0.3-1.9-0.8-2.7l5.8-5.8c0.5-0.5,0.5-1.2,0-1.6
	C59.1,50.8,58.3,50.8,57.9,51.3z M49.4,64.3c-1.6,0-2.8-1.3-2.8-2.8c0-1.6,1.3-2.8,2.8-2.8c1.6,0,2.8,1.3,2.8,2.8
	C52.2,63,50.9,64.3,49.4,64.3z M50.9,11.8c0-0.9-0.7-1.6-1.6-1.6c-0.9,0-1.6,0.7-1.6,1.6c0,0.9,0.7,1.6,1.6,1.6
	C50.2,13.4,50.9,12.7,50.9,11.8z M28.3,6.7L30,2.1c0.2-0.6,0.9-0.9,1.5-0.7c0.6,0.2,0.9,0.9,0.7,1.5l-1.6,4.6
	c-0.2,0.5-0.6,0.8-1.1,0.8c-0.1,0-0.3,0-0.4-0.1C28.4,7.9,28.1,7.3,28.3,6.7z M6.1,24.3C6.1,24.3,6,24.3,6.1,24.3l-4.9-0.1
	c-0.6,0-1.1-0.6-1.1-1.2c0-0.6,0.6-1.1,1.2-1.1l4.9,0.1c0.6,0,1.1,0.6,1.1,1.2C7.2,23.8,6.7,24.3,6.1,24.3z M1.4,15.7
	c0.2-0.6,0.9-0.9,1.5-0.7l4.6,1.6c0.6,0.2,0.9,0.9,0.7,1.5c-0.2,0.5-0.6,0.8-1.1,0.8c-0.1,0-0.3,0-0.4-0.1l-4.6-1.6
	C1.5,16.9,1.1,16.3,1.4,15.7z M4.9,9.2C5.3,8.7,6,8.6,6.5,9l3.9,3c0.5,0.4,0.6,1.1,0.2,1.6c-0.2,0.3-0.6,0.5-0.9,0.5
	c-0.2,0-0.5-0.1-0.7-0.2l-3.9-3C4.6,10.4,4.5,9.7,4.9,9.2z M9.9,5.7c-0.4-0.5-0.2-1.3,0.3-1.6c0.5-0.4,1.3-0.2,1.6,0.3l2.8,4
	c0.4,0.5,0.2,1.3-0.3,1.6c-0.2,0.1-0.4,0.2-0.7,0.2c-0.4,0-0.7-0.2-1-0.5L9.9,5.7z M16.1,2.4c-0.2-0.6,0.2-1.3,0.8-1.4
	c0.6-0.2,1.3,0.2,1.4,0.8l1.4,4.7c0.2,0.6-0.2,1.3-0.8,1.4c-0.1,0-0.2,0-0.3,0c-0.5,0-1-0.3-1.1-0.8L16.1,2.4z M22.9,6L23,1.1
	C23,0.5,23.6,0,24.2,0c0.6,0,1.1,0.6,1.1,1.2l-0.1,4.9c0,0.6-0.5,1.1-1.2,1.1c0,0,0,0,0,0C23.4,7.2,22.9,6.7,22.9,6z M66.7,2.8
	c-0.2-0.6,0.1-1.3,0.7-1.5c0.6-0.2,1.3,0.1,1.5,0.7l1.6,4.6c0.2,0.6-0.1,1.3-0.7,1.5c-0.1,0-0.3,0.1-0.4,0.1c-0.5,0-0.9-0.3-1.1-0.8
	L66.7,2.8z M98.9,22.9c0,0.6-0.5,1.2-1.1,1.2l-4.9,0.1c0,0,0,0,0,0c-0.6,0-1.1-0.5-1.2-1.1c0-0.6,0.5-1.2,1.1-1.2l4.9-0.1
	C98.4,21.8,98.9,22.3,98.9,22.9z M91.5,16.6l4.6-1.6c0.6-0.2,1.3,0.1,1.5,0.7c0.2,0.6-0.1,1.3-0.7,1.5l-4.6,1.6
	c-0.1,0-0.3,0.1-0.4,0.1c-0.5,0-0.9-0.3-1.1-0.8C90.5,17.5,90.9,16.8,91.5,16.6z M88.5,12l3.9-3c0.5-0.4,1.2-0.3,1.6,0.2
	c0.4,0.5,0.3,1.2-0.2,1.6l-3.9,3c-0.2,0.2-0.5,0.2-0.7,0.2c-0.3,0-0.7-0.2-0.9-0.5C87.9,13.1,88,12.4,88.5,12z M84.3,8.5l2.8-4
	c0.4-0.5,1.1-0.7,1.6-0.3c0.5,0.4,0.7,1.1,0.3,1.6l-2.8,4c-0.2,0.3-0.6,0.5-1,0.5c-0.2,0-0.5-0.1-0.7-0.2C84.1,9.7,83.9,9,84.3,8.5z
	 M79.2,6.4l1.4-4.7c0.2-0.6,0.8-1,1.4-0.8c0.6,0.2,1,0.8,0.8,1.4l-1.4,4.7c-0.1,0.5-0.6,0.8-1.1,0.8c-0.1,0-0.2,0-0.3,0
	C79.4,7.7,79,7.1,79.2,6.4z M73.7,6.1l-0.1-4.9c0-0.6,0.5-1.2,1.1-1.2c0.6,0,1.2,0.5,1.2,1.1L76,6c0,0.6-0.5,1.2-1.1,1.2
	c0,0,0,0,0,0C74.2,7.2,73.7,6.7,73.7,6.1z"/>
</svg>
