<?xml version="1.0" encoding="utf-8"?>
<!-- Generator: Adobe Illustrator 24.1.2, SVG Export Plug-In . SVG Version: 6.00 Build 0)  -->
<svg version="1.1" id="Icons" xmlns="http://www.w3.org/2000/svg" xmlns:xlink="http://www.w3.org/1999/xlink" x="0px" y="0px"
	 width="99.4px" height="102px" viewBox="0 0 99.4 102" style="enable-background:new 0 0 99.4 102;" xml:space="preserve">
<style type="text/css">
	.st0{fill:url(#SVGID_1_);}
</style>
<linearGradient id="SVGID_1_" gradientUnits="userSpaceOnUse" x1="49.7103" y1="0" x2="49.7103" y2="102">
	<stop  offset="0" style="stop-color:#00FBFF"/>
	<stop  offset="1" style="stop-color:#00B1B4"/>
</linearGradient>
<path class="st0" d="M6.9,95.1h85.5c0.6,0,1.1,0.5,1.1,1.1c0,0.6-0.5,1.1-1.1,1.1H6.9c-0.6,0-1.1-0.5-1.1-1.1
	C5.8,95.6,6.3,95.1,6.9,95.1z M95.8,99.8H3.6c-0.6,0-1.1,0.5-1.1,1.1c0,0.6,0.5,1.1,1.1,1.1h92.2c0.6,0,1.1-0.5,1.1-1.1
	C96.9,100.3,96.4,99.8,95.8,99.8z M39.9,92.7h19.6c0.6,0,1.1-0.5,1.1-1.1c0-0.6-0.5-1.1-1.1-1.1H39.9c-0.6,0-1.1,0.5-1.1,1.1
	C38.8,92.2,39.3,92.7,39.9,92.7z M68.4,91.5c0,0.6,0.5,1.1,1.1,1.1h19.6c0.6,0,1.1-0.5,1.1-1.1c0-0.6-0.5-1.1-1.1-1.1H69.5
	C68.9,90.4,68.4,90.9,68.4,91.5z M10.3,92.7h19.6c0.6,0,1.1-0.5,1.1-1.1c0-0.6-0.5-1.1-1.1-1.1H10.3c-0.6,0-1.1,0.5-1.1,1.1
	C9.2,92.2,9.7,92.7,10.3,92.7z M48.6,25v-2.8h-0.3c-1.6,0-3-1.3-3-3v-1c0-1.8,1.5-3.3,3.3-3.3v-0.6c0-0.6,0.5-1.1,1.1-1.1
	c0.6,0,1.1,0.5,1.1,1.1V15h0.3c1.6,0,3,1.3,3,3c0,0.6-0.5,1.1-1.1,1.1c-0.6,0-1.1-0.5-1.1-1.1c0-0.4-0.3-0.7-0.7-0.7h-0.3V20h0.3
	c1.6,0,3,1.3,3,3v1.3c0,1.6-1.3,3-3,3h-0.3v0.6c0,0.6-0.5,1.1-1.1,1.1c-0.6,0-1.1-0.5-1.1-1.1v-0.6h-0.3c-1.6,0-3-1.3-3-3
	c0-0.6,0.5-1.1,1.1-1.1c0.6,0,1.1,0.5,1.1,1.1c0,0.4,0.3,0.7,0.7,0.7H48.6z M48.3,20h0.3v-2.8c-0.6,0-1,0.5-1,1v1
	C47.6,19.7,47.9,20,48.3,20z M50.8,25h0.3c0.4,0,0.7-0.3,0.7-0.7V23c0-0.4-0.3-0.7-0.7-0.7h-0.3V25z M49.7,9.4
	c6.4,0,11.7,5.2,11.7,11.7c0,6.4-5.2,11.7-11.7,11.7c-6.4,0-11.7-5.2-11.7-11.7C38,14.7,43.3,9.4,49.7,9.4z M40.3,21.1
	c0,5.2,4.2,9.4,9.4,9.4c5.2,0,9.4-4.2,9.4-9.4s-4.2-9.4-9.4-9.4C44.5,11.7,40.3,15.9,40.3,21.1z M60.6,41.6c0-0.6-0.5-1.1-1.1-1.1
	H39.9c-0.6,0-1.1,0.5-1.1,1.1c0,0.6,0.5,1.1,1.1,1.1h19.6C60.1,42.7,60.6,42.2,60.6,41.6z M31,41.6c0-0.6-0.5-1.1-1.1-1.1H10.3
	c-0.6,0-1.1,0.5-1.1,1.1c0,0.6,0.5,1.1,1.1,1.1h19.6C30.5,42.7,31,42.2,31,41.6z M89.1,40.5H69.5c-0.6,0-1.1,0.5-1.1,1.1
	c0,0.6,0.5,1.1,1.1,1.1h19.6c0.6,0,1.1-0.5,1.1-1.1C90.2,41,89.7,40.5,89.1,40.5z M15,85.7V47.4h-1.4c-0.6,0-1.1-0.5-1.1-1.1
	c0-0.6,0.5-1.1,1.1-1.1h12.9c0.6,0,1.1,0.5,1.1,1.1c0,0.6-0.5,1.1-1.1,1.1h-1.4v38.3h1.4c0.6,0,1.1,0.5,1.1,1.1
	c0,0.6-0.5,1.1-1.1,1.1H13.6c-0.6,0-1.1-0.5-1.1-1.1c0-0.6,0.5-1.1,1.1-1.1H15z M22.9,47.4h-1.7v38.3h1.7V47.4z M17.3,85.7H19V47.4
	h-1.7V85.7z M54.8,47.4v38.3h1.4c0.6,0,1.1,0.5,1.1,1.1c0,0.6-0.5,1.1-1.1,1.1H43.2c-0.6,0-1.1-0.5-1.1-1.1c0-0.6,0.5-1.1,1.1-1.1
	h1.4V47.4h-1.4c-0.6,0-1.1-0.5-1.1-1.1c0-0.6,0.5-1.1,1.1-1.1h12.9c0.6,0,1.1,0.5,1.1,1.1c0,0.6-0.5,1.1-1.1,1.1H54.8z M46.9,85.7
	h1.7V47.4h-1.7V85.7z M52.5,47.4h-1.7v38.3h1.7V47.4z M74.2,85.7V47.4h-1.4c-0.6,0-1.1-0.5-1.1-1.1c0-0.6,0.5-1.1,1.1-1.1h12.9
	c0.6,0,1.1,0.5,1.1,1.1c0,0.6-0.5,1.1-1.1,1.1h-1.4v38.3h1.4c0.6,0,1.1,0.5,1.1,1.1c0,0.6-0.5,1.1-1.1,1.1H72.8
	c-0.6,0-1.1-0.5-1.1-1.1c0-0.6,0.5-1.1,1.1-1.1H74.2z M82.1,47.4h-1.7v38.3h1.7V47.4z M76.5,85.7h1.7V47.4h-1.7V85.7z M99.4,36.9
	c0,0.6-0.5,1.1-1.1,1.1c0,0,0,0,0,0H1.1c-0.5,0-0.9-0.3-1.1-0.8c-0.2-0.5,0-1,0.4-1.3L49,0.2c0.4-0.3,0.9-0.3,1.3,0L98.9,36
	C99.2,36.2,99.4,36.5,99.4,36.9z M94.9,35.8L49.7,2.5L4.5,35.8H94.9z"/>
</svg>
