<?xml version="1.0" encoding="utf-8"?>
<!-- Generator: Adobe Illustrator 24.1.2, SVG Export Plug-In . SVG Version: 6.00 Build 0)  -->
<svg version="1.1" id="Layer_1" xmlns="http://www.w3.org/2000/svg" xmlns:xlink="http://www.w3.org/1999/xlink" x="0px" y="0px"
	 width="300px" height="85px" viewBox="0 0 300 85" style="enable-background:new 0 0 300 85;" xml:space="preserve">
<style type="text/css">
	.st0{fill:#0E3447;}
	.st1{fill:url(#SVGID_1_);}
</style>
<g>
	<g>
		<path class="st0" d="M83.2,14.1h1v10.8h15.4V14.1h1v24h-1V25.8H84.3v12.3h-1V14.1z"/>
		<path class="st0" d="M107.5,16.5h-1v-2.3h1V16.5z M107.5,38.1h-1V20.7h1V38.1z"/>
		<path class="st0" d="M113.9,38.1h-1v-24h1V38.1z"/>
		<path class="st0" d="M120.3,38.1h-1v-24h1V38.1z"/>
		<path class="st0" d="M125.8,29.4c0,4.7,2.4,8.2,6.9,8.2c3.2,0,5.2-1.7,6-4.5h1c-0.7,3-3,5.4-7,5.4c-5.1,0-7.9-3.9-7.9-9.1
			c0-5,2.9-8.9,7.8-8.9c1.8,0,3.3,0.6,4.5,1.5c1.9,1.6,2.8,4.2,2.9,7.4H125.8z M132.5,21.3c-3.8,0-6.5,2.8-6.7,7.2h13
			C138.6,23.9,136.1,21.3,132.5,21.3z"/>
		<path class="st0" d="M149.1,39.9c-1.2,3.2-2.3,3.9-4.4,3.9c-0.7,0-1.1-0.1-1.5-0.2v-0.9h0c0.3,0.1,0.8,0.2,1.5,0.2
			c1.5,0,2.3-0.5,3.4-3.3l0.7-1.7L142,20.7h1.1l6.3,15.8h0l6-15.8h1.1L149.1,39.9z"/>
		<path class="st0" d="M174.2,14.5c2.5,0,4.5,1.6,4.5,4.6c0,2.8-2,4.3-4.8,6l6.4,8c0.8-1.6,1.3-3.6,1.3-5.7h1
			c-0.1,2.4-0.6,4.7-1.7,6.6l3.4,4.2h-1.2l-2.7-3.3c-1.5,2.2-3.8,3.6-6.8,3.6c-3.7,0-7-2.3-7-6c0-3.8,2.6-5.6,5.8-7.5l-0.4-0.6
			c-1.6-2-2.5-3.4-2.5-5.3C169.5,16.5,171.3,14.5,174.2,14.5z M179.9,34l-6.8-8.4c-2.7,1.6-5.2,3.3-5.2,6.8c0,3.1,2.6,5.1,5.9,5.1
			C176.4,37.5,178.5,36.2,179.9,34z M172.8,23.7l0.6,0.8c2.9-1.7,4.3-3.1,4.3-5.3s-1.4-3.6-3.5-3.6c-2.2,0-3.6,1.5-3.6,3.6
			C170.6,20.8,171.5,22.1,172.8,23.7z"/>
		<path class="st0" d="M196.5,25.1h12.4V26h-12.4v12.1h-1v-24h15.5V15h-14.4V25.1z"/>
		<path class="st0" d="M221.8,21.7c-0.6-0.1-1.3-0.1-1.9,0.1c-2.8,0.4-4.6,3.1-4.6,5.5v10.9h-1V20.7h1v3.5h0.1
			c0.9-1.9,2.5-3.1,4.2-3.3c0.8-0.3,1.6-0.3,2.3-0.2V21.7z"/>
		<path class="st0" d="M226.9,16.5h-1v-2.3h1V16.5z M226.9,38.1h-1V20.7h1V38.1z"/>
		<path class="st0" d="M232.3,29.4c0,4.7,2.4,8.2,6.9,8.2c3.2,0,5.2-1.7,6-4.5h1c-0.7,3-3,5.4-7,5.4c-5.1,0-7.9-3.9-7.9-9.1
			c0-5,2.9-8.9,7.8-8.9c1.8,0,3.3,0.6,4.5,1.5c1.9,1.6,2.8,4.2,2.9,7.4H232.3z M239,21.3c-3.8,0-6.5,2.8-6.7,7.2h13
			C245,23.9,242.6,21.3,239,21.3z"/>
		<path class="st0" d="M263.7,33.9L263.7,33.9c-1.1,2.9-3.4,4.5-6.6,4.5c-4.4,0-7.4-3.7-7.4-9c0-5.9,3.4-9,7.4-9
			c3,0,5.5,1.5,6.6,4.7h0v-11h1v24h-1V33.9z M263.8,29.5c0-4.9-2.6-8.2-6.5-8.2c-3.7,0-6.5,2.8-6.5,8.1c0,4.8,2.5,8.1,6.5,8.1
			C261.1,37.6,263.8,34.5,263.8,29.5z"/>
		<path class="st0" d="M270.1,29.4c0,4.7,2.4,8.2,6.9,8.2c3.2,0,5.2-1.7,6-4.5h1c-0.7,3-3,5.4-7,5.4c-5.1,0-7.9-3.9-7.9-9.1
			c0-5,2.9-8.9,7.8-8.9c1.8,0,3.3,0.6,4.5,1.5c1.9,1.6,2.8,4.2,2.9,7.4H270.1z M276.8,21.3c-3.8,0-6.5,2.8-6.7,7.2h13
			C282.8,23.9,280.4,21.3,276.8,21.3z"/>
		<path class="st0" d="M296,21.7c-0.6-0.1-1.3-0.1-1.9,0.1c-2.8,0.4-4.6,3.1-4.6,5.5v10.9h-1V20.7h1v3.5h0.1
			c0.9-1.9,2.5-3.1,4.2-3.3c0.8-0.3,1.6-0.3,2.3-0.2V21.7z"/>
	</g>
	<rect x="77.6" y="49.6" class="st0" width="222.4" height="0.9"/>
	<g>
		<path class="st0" d="M93.4,60.4h2.5l3.5,9.6h-2.5l-0.6-1.7h-3.4l-0.6,1.7H90L93.4,60.4z M95.7,66.6L95,64.3
			c-0.2-0.5-0.4-1.4-0.4-1.4h0c0,0-0.2,0.9-0.4,1.4l-0.7,2.3H95.7z"/>
		<path class="st0" d="M105.7,62.5h-2.8v-2h8v2h-2.8v7.6h-2.4V62.5z"/>
		<path class="st0" d="M119,62.5h-2.8v-2h8v2h-2.8v7.6H119V62.5z"/>
		<path class="st0" d="M128.9,65.3c0-2.9,1.8-5,4.8-5c2.9,0,4.8,2.1,4.8,5c0,2.9-1.8,5-4.8,5C130.7,70.3,128.9,68.1,128.9,65.3z
			 M136,65.3c0-1.7-0.8-3.1-2.3-3.1c-1.5,0-2.3,1.3-2.3,3.1c0,1.7,0.8,3.1,2.3,3.1C135.2,68.4,136,67,136,65.3z"/>
		<path class="st0" d="M143.9,60.4h4.6c1.9,0,3.4,1,3.4,2.8c0,1.1-0.6,1.9-1.7,2.3v0c0.8,0.3,1.3,0.8,1.4,1.8
			c0.2,1.3,0.1,2.5,0.4,2.6v0.1h-2.3c-0.3-0.1-0.2-1.3-0.4-2.2c-0.1-0.9-0.6-1.4-1.6-1.4h-1.4v3.6h-2.4V60.4z M148.1,64.7
			c0.9,0,1.4-0.4,1.4-1.2c0-0.7-0.5-1.2-1.4-1.2h-1.8v2.4H148.1z"/>
		<path class="st0" d="M157.5,60.4h2.4l2.9,4.8c0.1,0.3,0.7,1.2,0.7,1.2h0c0,0,0-1.2,0-1.5v-4.6h2.3v9.6h-2.4l-2.8-4.8
			c-0.2-0.3-0.7-1.3-0.7-1.3h0c0,0,0,1.2,0,1.6v4.5h-2.3V60.4z"/>
		<path class="st0" d="M171.6,60.4h7.3v2H174v1.7h4.2V66H174V68h5v2h-7.4V60.4z"/>
		<path class="st0" d="M187.3,66.5l-3.3-6.1h2.6l1.2,2.5c0.3,0.7,0.6,1.5,0.6,1.5h0c0,0,0.3-0.8,0.7-1.5l1.2-2.5h2.5l-3.3,6.1v3.6
			h-2.4V66.5z"/>
		<path class="st0" d="M197.2,67h2.4c0.1,1,0.7,1.4,1.9,1.4c0.8,0,1.5-0.3,1.5-1c0-0.8-0.8-0.9-2.1-1.3c-1.7-0.4-3.4-0.9-3.4-2.9
			c0-2.1,1.7-3,3.8-3c2.1,0,3.7,0.9,3.8,3h-2.3c-0.1-0.7-0.7-1.2-1.5-1.2c-0.8,0-1.4,0.4-1.4,0.9c0,0.7,0.7,0.8,2.2,1.2
			c1.8,0.4,3.4,1,3.4,3c0,2-1.7,3.1-3.9,3.1C199,70.3,197.3,69.2,197.2,67z"/>
		<path class="st0" d="M220.5,60.4h2.5l3.5,9.6h-2.5l-0.6-1.7H220l-0.6,1.7H217L220.5,60.4z M222.8,66.6l-0.7-2.3
			c-0.2-0.5-0.4-1.4-0.4-1.4h0c0,0-0.2,0.9-0.4,1.4l-0.7,2.3H222.8z"/>
		<path class="st0" d="M232.8,62.5H230v-2h8v2h-2.8v7.6h-2.4V62.5z"/>
		<path class="st0" d="M250.2,60.4h2.4V68h4.3v2h-6.7V60.4z"/>
		<path class="st0" d="M265.3,60.4h2.5l3.5,9.6h-2.5l-0.6-1.7h-3.4l-0.6,1.7h-2.4L265.3,60.4z M267.6,66.6l-0.7-2.3
			c-0.2-0.5-0.4-1.4-0.4-1.4h0c0,0-0.2,0.9-0.4,1.4l-0.7,2.3H267.6z"/>
		<path class="st0" d="M275,60.4h2.4l1,4c0.2,0.9,0.4,2.4,0.4,2.4h0c0,0,0.3-1.3,0.5-2.3l0.9-4.1h2.2l0.9,4.1c0.2,1,0.5,2.3,0.5,2.3
			h0c0,0,0.3-1.5,0.5-2.4l1-4h2.4l-2.6,9.6h-2.3l-1-4.6c-0.2-0.8-0.3-1.8-0.3-1.8h0c0,0-0.2,1-0.3,1.8l-1,4.6h-2.3L275,60.4z"/>
	</g>
	<g>
		<linearGradient id="SVGID_1_" gradientUnits="userSpaceOnUse" x1="66.5886" y1="57.6134" x2="-8.2013" y2="14.4335">
			<stop  offset="1.043455e-02" style="stop-color:#0E3447"/>
			<stop  offset="6.977483e-02" style="stop-color:#103C4D"/>
			<stop  offset="0.1806" style="stop-color:#145260"/>
			<stop  offset="0.3299" style="stop-color:#147A83"/>
			<stop  offset="0.4791" style="stop-color:#00B1B3"/>
		</linearGradient>
		<path class="st1" d="M74.4,24.1c0-0.3-0.1-0.5-0.1-0.7c-0.9-0.3-1.4-0.1-1.6,0.8c-0.3,1.1-1.1,1.7-2.2,1.7
			C69.9,26,69.3,26,68.6,26c-8.4,0-16.8,0-25.3,0c0-6.8,0-13.7,0-20.5c0-0.5,0-0.9,0-1.4c0.1-1.2,0.6-2.2,1.8-2.5
			C46.1,1.3,46.3,0.9,46,0c-3.7,0-7.5,0-11.2,0c-0.2,1.2-0.2,1.2,0.8,1.6C36.7,2,37.3,2.8,37.4,4c0,0.3,0,0.7,0,1
			c0,6.7,0,13.4,0,20.1c0,0.3,0,0.6,0,0.9c-9.6,0-19,0-28.6,0c0-0.5,0-0.9,0-1.3c0-5.6,0-11.3,0-16.9c0-1.3,0-2.5,0-3.8
			c0-1.3,0.6-2.2,1.9-2.5c0.9-0.3,1-0.8,0.8-1.6C7.6,0,3.9,0,0.1,0c-0.3,0.9,0,1.4,0.8,1.6C2.2,2,2.7,2.9,2.8,4.2c0,0.5,0,0.9,0,1.4
			c0,15.9,0,31.8,0,47.8c0,0.5,0,1,0,1.5C2.7,56,2.2,56.9,1,57.3C0,57.5-0.2,58,0.1,58.9c3.8,0,7.5,0,11.6,0
			c-0.2-0.6-0.3-1.3-0.6-1.4C9,57,8.7,55.4,8.7,53.6c0-7,0-14,0-21.1c0-0.4,0-0.7,0-1.1c9.6,0,19,0,28.6,0c0,0.4,0.1,41,0.1,47.8
			c0,0.6-0.1,1.3-0.1,1.9c0,1.2-0.7,2-1.7,2.3c-1,0.3-1.1,0.8-0.8,1.6c3.8,0,7.5,0,11.2,0c0.2-0.9,0.1-1.4-0.8-1.6
			c-0.9-0.2-1.5-0.8-1.7-1.8c-0.1-0.7-0.2-1.3-0.2-2c0-6.9,0-21.8,0.1-22.1c0.7,0,12.5,0,17.5,0c1.2,0,2.2,0.6,2.6,1.8
			c0.3,1,0.8,1,1.6,0.8c0-3.6,0-7.1,0-10.7c-0.9-0.3-1.3,0-1.6,0.8c-0.2,0.6-0.9,1.2-1.5,1.6c-0.5,0.3-1.3,0.3-1.9,0.3
			c-5.2,0-16.3,0-16.6-0.1c0-6.9,0-13.7,0-20.6c0.2,0,0.4-0.1,0.5-0.1c8.7,0,17.4,0,26.1,0c1.4,0,2.4,0.6,2.7,2
			c0.2,0.7,0.6,0.9,1.2,0.7c0.2-0.1,0.4-0.6,0.4-0.9C74.4,30.2,74.4,27.1,74.4,24.1z"/>
	</g>
</g>
</svg>
