<?xml version='1.0' encoding='utf-8'?>
<svg xmlns="http://www.w3.org/2000/svg" xmlns:xlink="http://www.w3.org/1999/xlink" viewBox="0 0 300.03 85.1">
  <defs>
    <style>
      .cls-1 {
        fill: #0e3447;
      }

      .cls-2 {
        fill: url(#linear-gradient);
      }
    </style>
    <linearGradient id="linear-gradient" x1="66.57" y1="28.5" x2="-8.2" y2="71.68" gradientTransform="matrix(1, 0, 0, -1, 0, 86.2)" gradientUnits="userSpaceOnUse">
      <stop offset="0.01" stop-color="#0e3447"/>
      <stop offset="0.07" stop-color="#103c4d"/>
      <stop offset="0.18" stop-color="#145260"/>
      <stop offset="0.33" stop-color="#147a83"/>
      <stop offset="0.48" stop-color="#00b1b3"/>
    </linearGradient>
  </defs>
  <g id="Layer_2" data-name="Layer 2">
    <g id="Layer_1-2" data-name="Layer 1">
      <g>
        <g>
          <path class="cls-1" d="M83.23,14.2h1V25h15.4V14.2h1v24h-1V25.9H84.33V38.2h-1v-24Z"/>
          <path class="cls-1" d="M107.53,16.6h-1V14.3h1Zm0,21.6h-1V20.8h1Z"/>
          <path class="cls-1" d="M113.93,38.2h-1v-24h1Z"/>
          <path class="cls-1" d="M120.33,38.2h-1v-24h1Z"/>
          <path class="cls-1" d="M125.83,29.5c0,4.7,2.4,8.2,6.9,8.2a5.78,5.78,0,0,0,6-4.5h1a6.74,6.74,0,0,1-7,5.4c-5.1,0-7.9-3.9-7.9-9.1,0-5,2.9-8.9,7.8-8.9a7.37,7.37,0,0,1,4.5,1.5c1.9,1.6,2.8,4.2,2.9,7.4Zm6.7-8.1c-3.8,0-6.5,2.8-6.7,7.2h13C138.63,24,136.13,21.4,132.53,21.4Z"/>
          <path class="cls-1" d="M149.13,40c-1.2,3.2-2.3,3.9-4.4,3.9a5.42,5.42,0,0,1-1.5-.2v-.9h0a4.87,4.87,0,0,0,1.5.2c1.5,0,2.3-.5,3.4-3.3l.7-1.7L142,20.8h1.1l6.3,15.8h0l6-15.8h1.1Z"/>
          <path class="cls-1" d="M174.23,14.6a4.28,4.28,0,0,1,4.5,4.6c0,2.8-2,4.3-4.8,6l6.4,8a12.93,12.93,0,0,0,1.3-5.7h1a14.36,14.36,0,0,1-1.7,6.6l3.4,4.2h-1.2l-2.7-3.3a8,8,0,0,1-6.8,3.6c-3.7,0-7-2.3-7-6s2.6-5.6,5.8-7.5l-.4-.6c-1.6-2-2.5-3.4-2.5-5.3A4.44,4.44,0,0,1,174.23,14.6Zm5.7,19.5-6.8-8.4c-2.7,1.6-5.2,3.3-5.2,6.8,0,3.1,2.6,5.1,5.9,5.1A7.05,7.05,0,0,0,179.93,34.1Zm-7.1-10.3.6.8c2.9-1.7,4.3-3.1,4.3-5.3a3.33,3.33,0,0,0-3.5-3.6,3.41,3.41,0,0,0-3.6,3.6C170.63,20.9,171.53,22.2,172.83,23.8Z"/>
          <path class="cls-1" d="M196.53,25.2h12.4v.9h-12.4V38.2h-1v-24H211v.9h-14.4V25.2Z"/>
          <path class="cls-1" d="M221.83,21.8a4.08,4.08,0,0,0-1.9.1,5.64,5.64,0,0,0-4.6,5.5V38.3h-1V20.8h1v3.5h.1a5.52,5.52,0,0,1,4.2-3.3,4.62,4.62,0,0,1,2.3-.2v1Z"/>
          <path class="cls-1" d="M226.93,16.6h-1V14.3h1Zm0,21.6h-1V20.8h1Z"/>
          <path class="cls-1" d="M232.33,29.5c0,4.7,2.4,8.2,6.9,8.2a5.78,5.78,0,0,0,6-4.5h1a6.74,6.74,0,0,1-7,5.4c-5.1,0-7.9-3.9-7.9-9.1,0-5,2.9-8.9,7.8-8.9a7.37,7.37,0,0,1,4.5,1.5c1.9,1.6,2.8,4.2,2.9,7.4Zm6.7-8.1c-3.8,0-6.5,2.8-6.7,7.2h13C245,24,242.63,21.4,239,21.4Z"/>
          <path class="cls-1" d="M263.73,34h0a6.61,6.61,0,0,1-6.6,4.5c-4.4,0-7.4-3.7-7.4-9,0-5.9,3.4-9,7.4-9a6.59,6.59,0,0,1,6.6,4.7h0v-11h1v24h-1Zm.1-4.4c0-4.9-2.6-8.2-6.5-8.2-3.7,0-6.5,2.8-6.5,8.1,0,4.8,2.5,8.1,6.5,8.1C261.13,37.7,263.83,34.6,263.83,29.6Z"/>
          <path class="cls-1" d="M270.13,29.5c0,4.7,2.4,8.2,6.9,8.2a5.78,5.78,0,0,0,6-4.5h1a6.74,6.74,0,0,1-7,5.4c-5.1,0-7.9-3.9-7.9-9.1,0-5,2.9-8.9,7.8-8.9a7.37,7.37,0,0,1,4.5,1.5c1.9,1.6,2.8,4.2,2.9,7.4Zm6.7-8.1c-3.8,0-6.5,2.8-6.7,7.2h13C282.83,24,280.43,21.4,276.83,21.4Z"/>
          <path class="cls-1" d="M296,21.8a4.08,4.08,0,0,0-1.9.1,5.64,5.64,0,0,0-4.6,5.5V38.3h-1V20.8h1v3.5h.1a5.52,5.52,0,0,1,4.2-3.3,4.62,4.62,0,0,1,2.3-.2v1Z"/>
        </g>
        <rect class="cls-1" x="77.63" y="49.7" width="222.4" height="0.9"/>
        <g>
          <path class="cls-1" d="M93.43,60.5h2.5l3.5,9.6h-2.5l-.6-1.7h-3.4l-.6,1.7H90Zm2.3,6.2L95,64.4a11.89,11.89,0,0,1-.4-1.4h0a11.89,11.89,0,0,1-.4,1.4l-.7,2.3Z"/>
          <path class="cls-1" d="M105.73,62.6h-2.8v-2h8v2h-2.8v7.6h-2.4Z"/>
          <path class="cls-1" d="M119,62.6h-2.8v-2h8v2h-2.8v7.6H119Z"/>
          <path class="cls-1" d="M128.93,65.4c0-2.9,1.8-5,4.8-5a4.67,4.67,0,0,1,4.8,5c0,2.9-1.8,5-4.8,5A4.67,4.67,0,0,1,128.93,65.4Zm7.1,0c0-1.7-.8-3.1-2.3-3.1s-2.3,1.3-2.3,3.1.8,3.1,2.3,3.1S136,67.1,136,65.4Z"/>
          <path class="cls-1" d="M143.93,60.5h4.6c1.9,0,3.4,1,3.4,2.8a2.34,2.34,0,0,1-1.7,2.3h0a2,2,0,0,1,1.4,1.8c.2,1.3.1,2.5.4,2.6v.1h-2.3c-.3-.1-.2-1.3-.4-2.2a1.42,1.42,0,0,0-1.6-1.4h-1.4v3.6h-2.4Zm4.2,4.3c.9,0,1.4-.4,1.4-1.2s-.5-1.2-1.4-1.2h-1.8v2.4Z"/>
          <path class="cls-1" d="M157.53,60.5h2.4l2.9,4.8a9.67,9.67,0,0,0,.7,1.2h0V60.4h2.3V70h-2.4l-2.8-4.8c-.2-.3-.7-1.3-.7-1.3h0V70h-2.3V60.5Z"/>
          <path class="cls-1" d="M171.63,60.5h7.3v2H174v1.7h4.2v1.9H174v2h5v2h-7.4Z"/>
          <path class="cls-1" d="M187.33,66.6,184,60.5h2.6l1.2,2.5c.3.7.6,1.5.6,1.5h0a11.94,11.94,0,0,1,.7-1.5l1.2-2.5h2.5l-3.3,6.1v3.6h-2.4V66.6Z"/>
          <path class="cls-1" d="M197.23,67.1h2.4c.1,1,.7,1.4,1.9,1.4.8,0,1.5-.3,1.5-1s-.8-.9-2.1-1.3c-1.7-.4-3.4-.9-3.4-2.9s1.7-3,3.8-3,3.7.9,3.8,3h-2.3a1.43,1.43,0,0,0-1.5-1.2c-.8,0-1.4.4-1.4.9,0,.7.7.8,2.2,1.2,1.8.4,3.4,1,3.4,3s-1.7,3.1-3.9,3.1C199,70.4,197.33,69.3,197.23,67.1Z"/>
          <path class="cls-1" d="M220.53,60.5H223l3.5,9.6H224l-.6-1.7H220l-.6,1.7H217Zm2.3,6.2-.7-2.3a11.89,11.89,0,0,1-.4-1.4h0a11.89,11.89,0,0,1-.4,1.4l-.7,2.3Z"/>
          <path class="cls-1" d="M232.83,62.6H230v-2h8v2h-2.8v7.6h-2.4Z"/>
          <path class="cls-1" d="M250.23,60.5h2.4v7.6h4.3v2h-6.7Z"/>
          <path class="cls-1" d="M265.33,60.5h2.5l3.5,9.6h-2.5l-.6-1.7h-3.4l-.6,1.7h-2.4Zm2.3,6.2-.7-2.3a11.89,11.89,0,0,1-.4-1.4h0a11.89,11.89,0,0,1-.4,1.4l-.7,2.3Z"/>
          <path class="cls-1" d="M275,60.5h2.4l1,4c.2.9.4,2.4.4,2.4h0s.3-1.3.5-2.3l.9-4.1h2.2l.9,4.1c.2,1,.5,2.3.5,2.3h0s.3-1.5.5-2.4l1-4h2.4l-2.6,9.6h-2.3l-1-4.6a15,15,0,0,1-.3-1.8h0s-.2,1-.3,1.8l-1,4.6h-2.3Z"/>
        </g>
        <path class="cls-2" d="M74.43,24.2c0-.3-.1-.5-.1-.7-.9-.3-1.4-.1-1.6.8a2.15,2.15,0,0,1-2.2,1.7,11.48,11.48,0,0,1-1.9.1H43.33V4.2a2.5,2.5,0,0,1,1.8-2.5c1-.3,1.2-.7.9-1.6H34.83c-.2,1.2-.2,1.2.8,1.6a2.58,2.58,0,0,1,1.8,2.4v22H8.83V4.1a2.31,2.31,0,0,1,1.9-2.5c.9-.3,1-.8.8-1.6C7.63.1,3.93.1.13.1c-.3.9,0,1.4.8,1.6a2.59,2.59,0,0,1,1.9,2.6V55A2.55,2.55,0,0,1,1,57.4c-1,.2-1.2.7-.9,1.6h11.6c-.2-.6-.3-1.3-.6-1.4-2.1-.5-2.4-2.1-2.4-3.9V31.5h28.6c0,.4.1,41,.1,47.8,0,.6-.1,1.3-.1,1.9a2.29,2.29,0,0,1-1.7,2.3c-1,.3-1.1.8-.8,1.6H46c.2-.9.1-1.4-.8-1.6a2.13,2.13,0,0,1-1.7-1.8,13.55,13.55,0,0,1-.2-2c0-6.9,0-21.8.1-22.1h17.5a2.58,2.58,0,0,1,2.6,1.8c.3,1,.8,1,1.6.8V49.5c-.9-.3-1.3,0-1.6.8A3.81,3.81,0,0,1,62,51.9a4,4,0,0,1-1.9.3c-5.2,0-16.3,0-16.6-.1V31.5a4.33,4.33,0,0,0,.5-.1h26.1a2.45,2.45,0,0,1,2.7,2c.2.7.6.9,1.2.7a1.27,1.27,0,0,0,.4-.9Z"/>
      </g>
    </g>
  </g>
</svg>
