<?xml version="1.0" encoding="utf-8"?>
<!-- Generator: Adobe Illustrator 24.1.2, SVG Export Plug-In . SVG Version: 6.00 Build 0)  -->
<svg version="1.1" id="Icons" xmlns="http://www.w3.org/2000/svg" xmlns:xlink="http://www.w3.org/1999/xlink" x="0px" y="0px"
	 width="95.3px" height="111px" viewBox="0 0 95.3 111" style="enable-background:new 0 0 95.3 111;" xml:space="preserve">
<style type="text/css">
	.st0{fill:url(#SVGID_1_);}
</style>
<linearGradient id="SVGID_1_" gradientUnits="userSpaceOnUse" x1="47.6558" y1="0" x2="47.6558" y2="111">
	<stop  offset="0" style="stop-color:#00FBFF"/>
	<stop  offset="1" style="stop-color:#00B1B4"/>
</linearGradient>
<path class="st0" d="M47.3,14c-9.8,0-18.3,3.7-24.5,10.7c-5.6,6.3-8.8,15-8.8,23.8c0,3.1-2,9-5.9,17c-0.6,1.2-0.5,2.6,0.2,3.7
	c0.7,1.1,1.9,1.8,3.2,1.8h2.3c1.5,0,2.8,1.3,2.8,2.8v9.1v0v7.5c0,4.3,3.5,7.8,7.8,7.8h16.2c4.3,0,7.8-3.5,7.8-7.8l0-24.6
	c1.5,1.3,3.6,1.9,5.6,1.7c2-0.2,3.8-1.2,5.1-2.8c1-1.3,1.6-2.8,1.7-4.4c0.9,0.2,1.9,0.3,2.8,0.2c2.1-0.2,4-1.3,5.4-2.9
	c1.3-1.7,2-3.7,1.7-5.9c-0.1-0.6-0.2-1.2-0.4-1.8c2.9-1.4,4.6-4.5,4.3-7.8c-0.4-3.9-3.7-6.9-7.6-7c-0.5-5.9-5.5-10.6-11.5-10.6
	c-2.4,0-4.8,0.8-6.7,2.1c-1.8-1.7-4.3-2.7-7-2.4c-4.1,0.4-7.4,3.7-7.9,7.7c-0.7-0.1-1.5-0.2-2.2-0.1c-2.1,0.2-4.1,1.3-5.4,2.9
	c-1.4,1.7-2,3.8-1.8,5.9c0.2,1.5,0.7,2.8,1.5,4c-3.4,1.8-5.5,5.6-5.1,9.6c0.5,5,4.7,8.7,9.6,8.7c0.3,0,0.7,0,1-0.1
	c1.1-0.1,2.1-0.4,3-0.8c0.7,3.3,3.6,5.6,7,5.6c0.2,0,0.5,0,0.7,0c1.4-0.1,2.7-0.7,3.8-1.6l0,24.4c0,3.1-2.5,5.5-5.5,5.5H24.5
	c-3.1,0-5.5-2.5-5.5-5.5V84h5.9c0.6,0,1.1-0.5,1.1-1.1c0-0.6-0.5-1.1-1.1-1.1h-5.9v-8c0-2.8-2.3-5.1-5.1-5.1h-2.3
	c-0.5,0-1-0.3-1.3-0.7c-0.3-0.4-0.3-1-0.1-1.5c4.1-8.4,6.1-14.4,6.1-17.9c0-8.3,3-16.4,8.2-22.3c4-4.5,11.2-9.9,22.8-9.9
	c9,0,17.1,3.2,22.9,9.1c5.8,5.9,8.9,14.1,8.9,23.1c0,7.9-3.5,14.6-7.2,21.7c-4.1,7.9-8.4,16.1-8.4,26.7v5.2
	c-2.2,0.2-3.9,2.1-3.9,4.3v3.3c0,0.6,0.5,1.1,1.1,1.1c0.6,0,1.1-0.5,1.1-1.1v-3.3c0-1,0.7-1.8,1.6-2v5.4c0,0.6,0.5,1.1,1.1,1.1
	c0.6,0,1.1-0.5,1.1-1.1v-5.4c0.9,0.2,1.6,1,1.6,2v3.3c0,0.6,0.5,1.1,1.1,1.1c0.6,0,1.1-0.5,1.1-1.1v-3.3c0-2.3-1.7-4.1-3.9-4.3V97
	c0-10.1,4.1-18,8.1-25.7c3.8-7.4,7.5-14.3,7.5-22.8c0-9.7-3.4-18.5-9.6-24.7C65.6,17.5,56.9,14,47.3,14z M42.2,65.3
	c-2.7,0.3-5.1-1.7-5.4-4.4c0-0.1,0-0.2,0-0.3c0.8-0.6,1.4-1.3,1.9-2.2c0.3-0.5,0.2-1.2-0.3-1.6c-0.5-0.3-1.2-0.2-1.6,0.3
	c-0.5,0.8-1.1,1.4-1.8,1.9c0,0,0,0,0,0c-1.1,0.8-2.3,1.2-3.6,1.4c-4.1,0.4-7.7-2.5-8.1-6.6c-0.3-3.3,1.5-6.4,4.5-7.6
	c1.3,1,2.9,1.5,4.5,1.5c0,0,0,0,0,0c0.6,0,1.1-0.5,1.1-1.1c0-0.6-0.5-1.2-1.1-1.2c-1.3,0-2.6-0.6-3.7-1.5c-1.1-1-1.8-2.3-1.9-3.7
	c-0.2-1.5,0.3-3,1.3-4.2c1-1.2,2.3-1.9,3.9-2.1c0.9-0.1,1.8,0,2.6,0.3c0.4,0.1,0.8,0.1,1.1-0.1c0.3-0.2,0.5-0.6,0.5-1
	c-0.1-3.5,2.5-6.5,5.9-6.8c3.6-0.4,6.9,2.3,7.3,5.9c0,0.3,0,0.7,0,1c0,0,0,0,0,0c-0.1,1.2-0.5,2.4-1.2,3.5c-0.4,0.5-0.2,1.2,0.3,1.6
	c0.2,0.1,0.4,0.2,0.6,0.2c0.4,0,0.7-0.2,0.9-0.5c0.9-1.4,1.5-3,1.6-4.7c0,0,0,0,0,0c0-0.4,0-0.9,0-1.3c-0.1-1.4-0.6-2.7-1.3-3.8
	c1.5-1.1,3.4-1.6,5.3-1.6c4.9,0,8.9,3.8,9.3,8.6c-1.1,0.3-2,0.8-2.9,1.5c-0.5,0.4-0.6,1.1-0.2,1.6c0.4,0.5,1.1,0.6,1.6,0.2
	c0.8-0.7,1.9-1.1,2.9-1.2c3-0.3,5.8,1.9,6.1,4.9c0.3,2.6-1.3,5.1-3.9,5.9c-0.6,0.2-0.9,0.8-0.8,1.4c0,0.1,0.1,0.2,0.1,0.3
	c0,0,0,0,0,0c0.3,0.6,0.5,1.3,0.6,2.1c0.2,1.5-0.3,3-1.2,4.2c-1,1.2-2.3,1.9-3.9,2.1c-1,0.1-2-0.1-2.9-0.5c-0.5-1.5-1.3-2.8-2.6-3.7
	c-0.5-0.4-1.2-0.3-1.6,0.2c-0.4,0.5-0.3,1.2,0.2,1.6c1,0.7,1.6,1.8,1.9,3c0,0,0,0,0,0c0,0.2,0.1,0.4,0.1,0.6
	c0.1,1.4-0.3,2.8-1.1,3.9c-0.9,1.1-2.1,1.8-3.5,1.9c-2.3,0.2-4.6-1.1-5.4-3.3c-0.2-0.4-0.6-0.7-1.1-0.7c-0.5,0-0.9,0.3-1,0.8
	C45.7,63.8,44.1,65.1,42.2,65.3z M42.3,45.5c-0.2-1.5-0.8-2.9-1.8-4c-0.9,0.4-1.8,0.7-2.8,0.7c-0.2,0-0.4,0-0.6,0
	c-1.7-0.2-3.2-1-4.2-2.3c-0.4-0.5-0.3-1.2,0.2-1.6c0.5-0.4,1.2-0.3,1.6,0.2c0.7,0.8,1.6,1.3,2.7,1.4c1.1,0.1,2.1-0.2,2.9-0.9
	c1.7-1.4,1.9-3.9,0.5-5.6c-0.4-0.5-0.3-1.2,0.2-1.6c0.5-0.4,1.2-0.3,1.6,0.2c2,2.4,1.9,6-0.2,8.2c1.2,1.4,2,3.2,2.2,5.1
	c0.1,0.6-0.4,1.2-1,1.3c0,0-0.1,0-0.1,0C42.8,46.5,42.3,46.1,42.3,45.5z M46.7,43c0.1-0.6,0.7-1,1.3-0.9c3.6,0.7,6,3.5,7,8.1
	c0.1,0.6-0.3,1.2-0.9,1.3c-0.1,0-0.2,0-0.2,0c-0.5,0-1-0.4-1.1-0.9c-0.5-2.5-1.9-5.7-5.2-6.3C47,44.2,46.6,43.6,46.7,43z M40.9,51.9
	c-0.2,0.6-0.9,0.8-1.5,0.6c-1.6-0.7-2.6-0.1-4.4,1c-1.2,0.8-2.7,1.7-4.5,1.7c-0.7,0-1.5-0.2-2.4-0.5c-0.6-0.2-0.8-0.9-0.6-1.5
	c0.2-0.6,0.9-0.8,1.5-0.6c1.8,0.8,3,0.1,4.8-1c1.7-1.1,3.7-2.4,6.5-1.2C40.9,50.7,41.2,51.3,40.9,51.9z M62.3,43.9
	c0.1-0.2,0.2-0.4,0.4-0.5c1-1.3,2.5-2.1,4.2-2.3c0.6-0.1,1.2,0.4,1.2,1c0.1,0.6-0.4,1.2-1,1.2c-1,0.1-2,0.6-2.6,1.4
	c-0.7,0.8-1,1.8-0.9,2.9c0.1,0.7,0.3,1.4,0.8,1.9c0.4,0.5,0.3,1.2-0.2,1.6c-0.2,0.2-0.4,0.2-0.7,0.2c-0.3,0-0.7-0.2-0.9-0.5
	c-0.7-0.9-1.1-1.9-1.2-3.1c-0.1-0.6,0-1.3,0.1-1.9c-1.3-0.6-2.8-0.9-4.2-0.7c-0.6,0.1-1.2-0.4-1.3-1c-0.1-0.6,0.4-1.2,1-1.3
	C58.7,42.8,60.6,43.1,62.3,43.9z M47.3,56.2c-1.8,0.2-3.3,1.5-3.8,3.2c-0.1,0.5-0.6,0.9-1.1,0.9c-0.1,0-0.2,0-0.3,0
	c-0.6-0.2-1-0.8-0.8-1.4c0.6-2.5,2.7-4.4,5.2-4.9c0-1.7,0.4-3.4,1.3-4.9c0.3-0.5,1-0.7,1.6-0.4c0.5,0.3,0.7,1,0.4,1.6
	c-0.7,1.2-1,2.4-1,3.7c2.4,0.4,4.4,2,5.2,4.4c0.2,0.6-0.1,1.2-0.7,1.4c-0.6,0.2-1.2-0.1-1.4-0.7C51.3,57.2,49.4,56,47.3,56.2z
	 M56.3,40.1c-2.8-3.1-2.6-7.9,0.5-10.7c0.5-0.4,1.2-0.4,1.6,0.1c0.4,0.5,0.4,1.2-0.1,1.6c-2.1,2-2.3,5.3-0.3,7.5
	c0.4,0.5,0.4,1.2-0.1,1.6c-0.2,0.2-0.5,0.3-0.8,0.3C56.9,40.5,56.5,40.4,56.3,40.1z M11.9,14.1c-0.4-0.4-0.4-1.2,0-1.6
	c0.4-0.4,1.2-0.4,1.6,0l3.7,3.7c0.4,0.4,0.4,1.2,0,1.6c-0.2,0.2-0.5,0.3-0.8,0.3c-0.3,0-0.6-0.1-0.8-0.3L11.9,14.1z M18.4,20.6
	c-0.2-0.2-0.3-0.5-0.3-0.8c0-0.3,0.1-0.6,0.3-0.8c0.2-0.2,0.5-0.3,0.8-0.3c0.3,0,0.6,0.1,0.8,0.3c0.2,0.2,0.3,0.5,0.3,0.8
	c0,0.3-0.1,0.6-0.3,0.8c-0.2,0.2-0.5,0.3-0.8,0.3C18.9,20.9,18.6,20.8,18.4,20.6z M75.3,20.8c-0.2-0.2-0.3-0.5-0.3-0.8
	c0-0.3,0.1-0.6,0.3-0.8c0.2-0.2,0.5-0.3,0.8-0.3c0.3,0,0.6,0.1,0.8,0.3c0.2,0.2,0.3,0.5,0.3,0.8c0,0.3-0.1,0.6-0.3,0.8
	c-0.2,0.2-0.5,0.3-0.8,0.3C75.8,21.1,75.5,21,75.3,20.8z M78,18.1c-0.4-0.4-0.4-1.2,0-1.6l4-4c0.4-0.4,1.2-0.4,1.6,0
	c0.4,0.4,0.4,1.2,0,1.6l-4,4c-0.2,0.2-0.5,0.3-0.8,0.3C78.5,18.4,78.2,18.3,78,18.1z M4.1,31.1c-0.2-0.2-0.3-0.5-0.3-0.8
	c0-0.3,0.1-0.6,0.3-0.8c0.2-0.2,0.5-0.3,0.8-0.3c0.3,0,0.6,0.1,0.8,0.3C5.9,29.7,6,30,6,30.3c0,0.3-0.1,0.6-0.3,0.8
	c-0.2,0.2-0.5,0.3-0.8,0.3C4.6,31.5,4.3,31.3,4.1,31.1z M10.1,33.6c-0.2-0.2-0.3-0.5-0.3-0.8c0-0.3,0.1-0.6,0.3-0.8
	c0.2-0.2,0.5-0.3,0.8-0.3c0.3,0,0.6,0.1,0.8,0.3c0.2,0.2,0.3,0.5,0.3,0.8c0,0.3-0.1,0.6-0.3,0.8c-0.2,0.2-0.5,0.3-0.8,0.3
	C10.6,34,10.3,33.8,10.1,33.6z M7.1,32.4c-0.2-0.2-0.3-0.5-0.3-0.8c0-0.3,0.1-0.6,0.3-0.8c0.2-0.2,0.5-0.3,0.8-0.3
	c0.3,0,0.6,0.1,0.8,0.3c0.2,0.2,0.3,0.5,0.3,0.8c0,0.3-0.1,0.6-0.3,0.8c-0.2,0.2-0.5,0.3-0.8,0.3C7.6,32.7,7.3,32.6,7.1,32.4z
	 M62.3,12.1c-0.2-0.2-0.3-0.5-0.3-0.8c0-0.3,0.1-0.6,0.3-0.8c0.2-0.2,0.5-0.3,0.8-0.3c0.3,0,0.6,0.1,0.8,0.3
	c0.2,0.2,0.3,0.5,0.3,0.8c0,0.3-0.1,0.6-0.3,0.8c-0.2,0.2-0.5,0.3-0.8,0.3C62.8,12.4,62.5,12.3,62.3,12.1z M63.6,8.9
	c-0.2-0.2-0.3-0.5-0.3-0.8c0-0.3,0.1-0.6,0.3-0.8c0.2-0.2,0.5-0.3,0.8-0.3c0.3,0,0.6,0.1,0.8,0.3c0.2,0.2,0.3,0.5,0.3,0.8
	c0,0.3-0.1,0.6-0.3,0.8c-0.2,0.2-0.5,0.3-0.8,0.3C64.1,9.2,63.8,9.1,63.6,8.9z M86.7,32.4c-0.2-0.2-0.3-0.5-0.3-0.8
	c0-0.3,0.1-0.6,0.3-0.8c0.2-0.2,0.5-0.3,0.8-0.3c0.3,0,0.6,0.1,0.8,0.3c0.2,0.2,0.3,0.5,0.3,0.8c0,0.3-0.1,0.6-0.3,0.8
	c-0.2,0.2-0.5,0.3-0.8,0.3C87.2,32.7,86.9,32.6,86.7,32.4z M64.9,5.6c-0.2-0.2-0.3-0.5-0.3-0.8c0-0.3,0.1-0.6,0.3-0.8
	c0.2-0.2,0.5-0.3,0.8-0.3c0.3,0,0.6,0.1,0.8,0.3c0.2,0.2,0.3,0.5,0.3,0.8c0,0.3-0.1,0.6-0.3,0.8c-0.2,0.2-0.5,0.3-0.8,0.3
	S65.1,5.8,64.9,5.6z M85.3,32.1c0.2,0.2,0.3,0.5,0.3,0.8c0,0.3-0.1,0.6-0.3,0.8C85,33.9,84.7,34,84.5,34c-0.3,0-0.6-0.1-0.8-0.3
	c-0.2-0.2-0.3-0.5-0.3-0.8c0-0.3,0.1-0.6,0.3-0.8c0.2-0.2,0.5-0.3,0.8-0.3C84.7,31.7,85,31.9,85.3,32.1z M89.8,31.1
	c-0.2-0.2-0.3-0.5-0.3-0.8c0-0.3,0.1-0.6,0.3-0.8c0.2-0.2,0.5-0.3,0.8-0.3c0.3,0,0.6,0.1,0.8,0.3c0.2,0.2,0.3,0.5,0.3,0.8
	c0,0.3-0.1,0.6-0.3,0.8c-0.2,0.2-0.5,0.3-0.8,0.3C90.3,31.5,90,31.3,89.8,31.1z M28.5,5.6c-0.2-0.2-0.3-0.5-0.3-0.8
	c0-0.3,0.1-0.6,0.3-0.8c0.2-0.2,0.5-0.3,0.8-0.3c0.3,0,0.6,0.1,0.8,0.3c0.2,0.2,0.3,0.5,0.3,0.8c0,0.3-0.1,0.6-0.3,0.8
	c-0.2,0.2-0.5,0.3-0.8,0.3C29,5.9,28.7,5.8,28.5,5.6z M29.8,7.1c0.2-0.2,0.5-0.3,0.8-0.3c0.3,0,0.6,0.1,0.8,0.3
	c0.2,0.2,0.3,0.5,0.3,0.8c0,0.3-0.1,0.6-0.3,0.8c-0.2,0.2-0.5,0.3-0.8,0.3c-0.3,0-0.6-0.1-0.8-0.3c-0.2-0.2-0.3-0.5-0.3-0.8
	C29.5,7.7,29.6,7.4,29.8,7.1z M31.1,10.3c0.2-0.2,0.5-0.3,0.8-0.3c0.3,0,0.6,0.1,0.8,0.3c0.2,0.2,0.3,0.5,0.3,0.8
	c0,0.3-0.1,0.6-0.3,0.8c-0.2,0.2-0.5,0.3-0.8,0.3c-0.3,0-0.6-0.1-0.8-0.3c-0.2-0.2-0.3-0.5-0.3-0.8C30.8,10.8,30.9,10.5,31.1,10.3z
	 M95.3,48.5c0,0.6-0.5,1.1-1.1,1.1h-2.4v2.4c0,0.6-0.5,1.1-1.1,1.1c-0.6,0-1.1-0.5-1.1-1.1v-2.4h-2.4c-0.6,0-1.1-0.5-1.1-1.1
	c0-0.6,0.5-1.1,1.1-1.1h2.4V45c0-0.6,0.5-1.1,1.1-1.1c0.6,0,1.1,0.5,1.1,1.1v2.4h2.4C94.8,47.4,95.3,47.9,95.3,48.5z M8.3,49.7H5.8
	v2.4c0,0.6-0.5,1.1-1.1,1.1s-1.1-0.5-1.1-1.1v-2.4H1.1c-0.6,0-1.1-0.5-1.1-1.1c0-0.6,0.5-1.1,1.1-1.1h2.4V45c0-0.6,0.5-1.1,1.1-1.1
	s1.1,0.5,1.1,1.1v2.4h2.4c0.6,0,1.1,0.5,1.1,1.1C9.4,49.2,8.9,49.7,8.3,49.7z M42.8,4.7c0-0.6,0.5-1.1,1.1-1.1h2.4V1.1
	c0-0.6,0.5-1.1,1.1-1.1s1.1,0.5,1.1,1.1v2.4h2.4c0.6,0,1.1,0.5,1.1,1.1s-0.5,1.1-1.1,1.1h-2.4v2.4c0,0.6-0.5,1.1-1.1,1.1
	s-1.1-0.5-1.1-1.1V5.8H44C43.4,5.8,42.8,5.3,42.8,4.7z"/>
</svg>
