<?xml version="1.0" encoding="utf-8"?>
<!-- Generator: Adobe Illustrator 24.1.2, SVG Export Plug-In . SVG Version: 6.00 Build 0)  -->
<svg version="1.1" id="Icons" xmlns="http://www.w3.org/2000/svg" xmlns:xlink="http://www.w3.org/1999/xlink" x="0px" y="0px"
	 width="115px" height="115px" viewBox="0 0 115 115" style="enable-background:new 0 0 115 115;" xml:space="preserve">
<style type="text/css">
	.st0{fill:url(#SVGID_1_);}
</style>
<linearGradient id="SVGID_1_" gradientUnits="userSpaceOnUse" x1="57.5" y1="116.5" x2="57.5" y2="2.6" gradientTransform="matrix(1 0 0 -1 0 117)">
	<stop  offset="0" style="stop-color:#00FBFF"/>
	<stop  offset="1" style="stop-color:#00B1B4"/>
</linearGradient>
<path class="st0" d="M91.1,77.3H63c-2.6,0-4.8-2.1-4.8-4.8V66C73.6,65.4,86,52.7,86,37.2V32v-2.4c0-0.6-0.5-1.1-1.1-1.1h-1.8V3.2
	c0-0.6-0.5-1.1-1.1-1.1h-4.3V1.6c0-0.6-0.5-1.1-1.1-1.1H75c-0.3,0-0.6,0.1-0.8,0.3l-1.6,1.7c-0.4,0.4-0.4,1.1,0,1.5l1.5,1.6
	c0.2,0.2,0.5,0.3,0.8,0.3h1.7c0.6,0,1.1-0.5,1.1-1.1V4.3H81v24.3h-1.8c-0.6,0-1.1,0.5-1.1,1.1v2.4v5.2c0,11.6-9.4,21-21,21H57
	c-11.6,0-21-9.4-21-21v-5.2v-2.4c0-0.6-0.5-1.1-1.1-1.1h-1.8V4.3h3.2v0.6c0,0.6,0.5,1.1,1.1,1.1h1.7c0.3,0,0.6-0.1,0.8-0.3l1.5-1.6
	C42,3.5,42,2.9,41.6,2.5L40,0.8c-0.2-0.2-0.4-0.3-0.7-0.3h-1.7c-0.6,0-1.1,0.5-1.1,1.1v0.6h-4.3c-0.6,0-1.1,0.5-1.1,1.1v25.4h-1.8
	c-0.6,0-1.1,0.5-1.1,1.1v2.4v5.2C28.2,53,40.6,65.7,56,66.2v6.3c0,3.8,3.1,6.9,6.9,6.9H91c2.6,0,4.8,2.1,4.8,4.8
	c0,2.6-2.1,4.8-4.8,4.8H54.2c-3.8,0-6.9,3.1-6.9,6.9s3.1,6.9,6.9,6.9h28.1c2.6,0,4.8,2.1,4.8,4.8c0,2.6-2.1,4.8-4.8,4.8H34.6
	c-2.6,0-4.8-2.1-4.8-4.8v-5.8c6-0.5,10.7-5.6,10.7-11.7c0-6.5-5.3-11.8-11.8-11.8C22.3,78.3,17,83.5,17,90c0,6.1,4.7,11.2,10.7,11.7
	v5.8c0,3.8,3.1,6.9,6.9,6.9h47.7c3.8,0,6.9-3.1,6.9-6.9s-3.1-6.9-6.9-6.9H54.2c-2.6,0-4.8-2.1-4.8-4.8s2.1-4.8,4.8-4.8h36.9
	c3.8,0,6.9-3.1,6.9-6.9C98,80.4,94.9,77.3,91.1,77.3z M30.4,37.2v-4.1h3.5v4.1C33.9,50,44.3,60.3,57,60.3h0.1
	c12.8,0,23.1-10.4,23.1-23.1v-4.1h3.5v4.1c0,14.7-12,26.7-26.7,26.7h0C42.3,63.9,30.4,51.9,30.4,37.2z M28.8,95.2
	c-2.9,0-5.2-2.3-5.2-5.2c0-2.9,2.3-5.2,5.2-5.2c2.9,0,5.2,2.3,5.2,5.2C34,92.9,31.6,95.2,28.8,95.2z M19.2,90c0-5.3,4.3-9.6,9.6-9.6
	s9.6,4.3,9.6,9.6c0,4.9-3.7,9-8.6,9.6v-1.8c0-0.2,0-0.3-0.1-0.4c3.6-0.5,6.4-3.6,6.4-7.3c0-4.1-3.3-7.3-7.3-7.3s-7.3,3.3-7.3,7.3
	c0,3.7,2.8,6.8,6.4,7.3c-0.1,0.1-0.1,0.3-0.1,0.4v1.8C22.9,99.1,19.2,95,19.2,90z M31.6,90c0,1.5-1.3,2.8-2.8,2.8S26,91.5,26,90
	s1.3-2.8,2.8-2.8C30.3,87.3,31.6,88.5,31.6,90z"/>
</svg>
