<?xml version="1.0" encoding="utf-8"?>
<!-- Generator: Adobe Illustrator 24.1.2, SVG Export Plug-In . SVG Version: 6.00 Build 0)  -->
<svg version="1.1" id="Icons" xmlns="http://www.w3.org/2000/svg" xmlns:xlink="http://www.w3.org/1999/xlink" x="0px" y="0px"
	 width="115px" height="115px" viewBox="0 0 115 115" style="enable-background:new 0 0 115 115;" xml:space="preserve">
<style type="text/css">
	.st0{fill:url(#SVGID_1_);}
</style>
<linearGradient id="SVGID_1_" gradientUnits="userSpaceOnUse" x1="57.5" y1="114" x2="57.5" y2="3" gradientTransform="matrix(1 0 0 -1 0 116)">
	<stop  offset="0" style="stop-color:#00FBFF"/>
	<stop  offset="1" style="stop-color:#00B1B4"/>
</linearGradient>
<path class="st0" d="M57.1,16c-9.8,0-18.3,3.7-24.5,10.7c-5.6,6.3-8.8,15-8.8,23.8c0,3.1-2,9-5.9,17c-0.6,1.2-0.5,2.6,0.2,3.7
	c0.7,1.1,1.9,1.8,3.2,1.8h2.3c1.5,0,2.8,1.3,2.8,2.8v9.1l0,0v7.5c0,4.3,3.5,7.8,7.8,7.8h16.2c4.3,0,7.8-3.5,7.8-7.8V67.8
	c1.5,1.3,3.6,1.9,5.6,1.7c2-0.2,3.8-1.2,5.1-2.8c1-1.3,1.6-2.8,1.7-4.4c0.9,0.2,1.9,0.3,2.8,0.2c2.1-0.2,4-1.3,5.4-2.9
	c1.3-1.7,2-3.7,1.7-5.9c-0.1-0.6-0.2-1.2-0.4-1.8c2.9-1.4,4.6-4.5,4.3-7.8c-0.4-3.9-3.7-6.9-7.6-7c-0.5-5.9-5.5-10.6-11.5-10.6
	c-2.4,0-4.8,0.8-6.7,2.1c-1.8-1.7-4.3-2.7-7-2.4c-4.1,0.4-7.4,3.7-7.9,7.7c-0.7-0.1-1.5-0.2-2.2-0.1c-2.1,0.2-4.1,1.3-5.4,2.9
	c-1.4,1.7-2,3.8-1.8,5.9c0.2,1.5,0.7,2.8,1.5,4c-3.4,1.8-5.5,5.6-5.1,9.6c0.5,5,4.7,8.7,9.6,8.7c0.3,0,0.7,0,1-0.1
	c1.1-0.1,2.1-0.4,3-0.8c0.7,3.3,3.6,5.6,7,5.6c0.2,0,0.5,0,0.7,0c1.4-0.1,2.7-0.7,3.8-1.6v24.4c0,3.1-2.5,5.5-5.5,5.5h-16
	c-3.1,0-5.5-2.5-5.5-5.5V86h5.9c0.6,0,1.1-0.5,1.1-1.1s-0.5-1.1-1.1-1.1h-5.9v-8c0-2.8-2.3-5.1-5.1-5.1h-2.3c-0.5,0-1-0.3-1.3-0.7
	c-0.3-0.4-0.3-1-0.1-1.5c4.1-8.4,6.1-14.4,6.1-17.9c0-8.3,3-16.4,8.2-22.3c4-4.5,11.2-9.9,22.8-9.9c9,0,17.1,3.2,22.9,9.1
	c5.8,5.9,8.9,14.1,8.9,23.1c0,7.9-3.5,14.6-7.2,21.7c-4.1,7.9-8.4,16.1-8.4,26.7v5.2c-2.2,0.2-3.9,2.1-3.9,4.3v3.3
	c0,0.6,0.5,1.1,1.1,1.1s1.1-0.5,1.1-1.1v-3.3c0-1,0.7-1.8,1.6-2v5.4c0,0.6,0.5,1.1,1.1,1.1s1.1-0.5,1.1-1.1v-5.4
	c0.9,0.2,1.6,1,1.6,2v3.3c0,0.6,0.5,1.1,1.1,1.1s1.1-0.5,1.1-1.1v-3.3c0-2.3-1.7-4.1-3.9-4.3V99c0-10.1,4.1-18,8.1-25.7
	c3.8-7.4,7.5-14.3,7.5-22.8c0-9.7-3.4-18.5-9.6-24.7C75.4,19.5,66.8,16,57.1,16z M52,67.3c-2.7,0.3-5.1-1.7-5.4-4.4
	c0-0.1,0-0.2,0-0.3c0.8-0.6,1.4-1.3,1.9-2.2c0.3-0.5,0.2-1.2-0.3-1.6c-0.5-0.3-1.2-0.2-1.6,0.3c-0.5,0.8-1.1,1.4-1.8,1.9l0,0
	c-1.1,0.8-2.3,1.2-3.6,1.4c-4.1,0.4-7.7-2.5-8.1-6.6c-0.3-3.3,1.5-6.4,4.5-7.6c1.3,1,2.9,1.5,4.5,1.5l0,0c0.6,0,1.1-0.5,1.1-1.1
	s-0.5-1.2-1.1-1.2c-1.3,0-2.6-0.6-3.7-1.5c-1.1-1-1.8-2.3-1.9-3.7c-0.2-1.5,0.3-3,1.3-4.2s2.3-1.9,3.9-2.1c0.9-0.1,1.8,0,2.6,0.3
	c0.4,0.1,0.8,0.1,1.1-0.1c0.3-0.2,0.5-0.6,0.5-1c-0.1-3.5,2.5-6.5,5.9-6.8c3.6-0.4,6.9,2.3,7.3,5.9c0,0.3,0,0.7,0,1l0,0
	c-0.1,1.2-0.5,2.4-1.2,3.5c-0.4,0.5-0.2,1.2,0.3,1.6c0.2,0.1,0.4,0.2,0.6,0.2c0.4,0,0.7-0.2,0.9-0.5c0.9-1.4,1.5-3,1.6-4.7l0,0
	c0-0.4,0-0.9,0-1.3c-0.1-1.4-0.6-2.7-1.3-3.8c1.5-1.1,3.4-1.6,5.3-1.6c4.9,0,8.9,3.8,9.3,8.6c-1.1,0.3-2,0.8-2.9,1.5
	c-0.5,0.4-0.6,1.1-0.2,1.6c0.4,0.5,1.1,0.6,1.6,0.2c0.8-0.7,1.9-1.1,2.9-1.2c3-0.3,5.8,1.9,6.1,4.9c0.3,2.6-1.3,5.1-3.9,5.9
	c-0.6,0.2-0.9,0.8-0.8,1.4c0,0.1,0.1,0.2,0.1,0.3l0,0c0.3,0.6,0.5,1.3,0.6,2.1c0.2,1.5-0.3,3-1.2,4.2c-1,1.2-2.3,1.9-3.9,2.1
	c-1,0.1-2-0.1-2.9-0.5c-0.5-1.5-1.3-2.8-2.6-3.7c-0.5-0.4-1.2-0.3-1.6,0.2c-0.4,0.5-0.3,1.2,0.2,1.6c1,0.7,1.6,1.8,1.9,3l0,0
	c0,0.2,0.1,0.4,0.1,0.6c0.1,1.4-0.3,2.8-1.1,3.9c-0.9,1.1-2.1,1.8-3.5,1.9c-2.3,0.2-4.6-1.1-5.4-3.3c-0.2-0.4-0.6-0.7-1.1-0.7
	s-0.9,0.3-1,0.8C55.5,65.8,53.9,67.1,52,67.3z M52.1,47.5c-0.2-1.5-0.8-2.9-1.8-4c-0.9,0.4-1.8,0.7-2.8,0.7c-0.2,0-0.4,0-0.6,0
	c-1.7-0.2-3.2-1-4.2-2.3c-0.4-0.5-0.3-1.2,0.2-1.6c0.5-0.4,1.2-0.3,1.6,0.2c0.7,0.8,1.6,1.3,2.7,1.4c1.1,0.1,2.1-0.2,2.9-0.9
	c1.7-1.4,1.9-3.9,0.5-5.6c-0.4-0.5-0.3-1.2,0.2-1.6c0.5-0.4,1.2-0.3,1.6,0.2c2,2.4,1.9,6-0.2,8.2c1.2,1.4,2,3.2,2.2,5.1
	c0.1,0.6-0.4,1.2-1,1.3h-0.1C52.6,48.5,52.1,48.1,52.1,47.5z M56.5,45c0.1-0.6,0.7-1,1.3-0.9c3.6,0.7,6,3.5,7,8.1
	c0.1,0.6-0.3,1.2-0.9,1.3c-0.1,0-0.2,0-0.2,0c-0.5,0-1-0.4-1.1-0.9c-0.5-2.5-1.9-5.7-5.2-6.3C56.8,46.2,56.4,45.6,56.5,45z
	 M50.8,53.9c-0.2,0.6-0.9,0.8-1.5,0.6c-1.6-0.7-2.6-0.1-4.4,1c-1.2,0.8-2.7,1.7-4.5,1.7c-0.7,0-1.5-0.2-2.4-0.5
	c-0.6-0.2-0.8-0.9-0.6-1.5c0.2-0.6,0.9-0.8,1.5-0.6c1.8,0.8,3,0.1,4.8-1c1.7-1.1,3.7-2.4,6.5-1.2C50.8,52.7,51,53.3,50.8,53.9z
	 M72.1,45.9c0.1-0.2,0.2-0.4,0.4-0.5c1-1.3,2.5-2.1,4.2-2.3c0.6-0.1,1.2,0.4,1.2,1c0.1,0.6-0.4,1.2-1,1.2c-1,0.1-2,0.6-2.6,1.4
	c-0.7,0.8-1,1.8-0.9,2.9c0.1,0.7,0.3,1.4,0.8,1.9c0.4,0.5,0.3,1.2-0.2,1.6c-0.2,0.2-0.4,0.2-0.7,0.2c-0.3,0-0.7-0.2-0.9-0.5
	c-0.7-0.9-1.1-1.9-1.2-3.1c-0.1-0.6,0-1.3,0.1-1.9c-1.3-0.6-2.8-0.9-4.2-0.7c-0.6,0.1-1.2-0.4-1.3-1s0.4-1.2,1-1.3
	C68.6,44.8,70.4,45.1,72.1,45.9z M57.1,58.2c-1.8,0.2-3.3,1.5-3.8,3.2c-0.1,0.5-0.6,0.9-1.1,0.9c-0.1,0-0.2,0-0.3,0
	c-0.6-0.2-1-0.8-0.8-1.4c0.6-2.5,2.7-4.4,5.2-4.9c0-1.7,0.4-3.4,1.3-4.9c0.3-0.5,1-0.7,1.6-0.4c0.5,0.3,0.7,1,0.4,1.6
	c-0.7,1.2-1,2.4-1,3.7c2.4,0.4,4.4,2,5.2,4.4c0.2,0.6-0.1,1.2-0.7,1.4c-0.6,0.2-1.2-0.1-1.4-0.7C61.1,59.2,59.2,58,57.1,58.2z
	 M66.1,42.1c-2.8-3.1-2.6-7.9,0.5-10.7c0.5-0.4,1.2-0.4,1.6,0.1c0.4,0.5,0.4,1.2-0.1,1.6c-2.1,2-2.3,5.3-0.3,7.5
	c0.4,0.5,0.4,1.2-0.1,1.6c-0.2,0.2-0.5,0.3-0.8,0.3C66.8,42.5,66.3,42.4,66.1,42.1z M21.7,16.1c-0.4-0.4-0.4-1.2,0-1.6
	c0.4-0.4,1.2-0.4,1.6,0l3.7,3.7c0.4,0.4,0.4,1.2,0,1.6c-0.2,0.2-0.5,0.3-0.8,0.3s-0.6-0.1-0.8-0.3L21.7,16.1z M28.2,22.6
	c-0.2-0.2-0.3-0.5-0.3-0.8s0.1-0.6,0.3-0.8c0.2-0.2,0.5-0.3,0.8-0.3s0.6,0.1,0.8,0.3c0.2,0.2,0.3,0.5,0.3,0.8s-0.1,0.6-0.3,0.8
	c-0.2,0.2-0.5,0.3-0.8,0.3S28.4,22.8,28.2,22.6z M85.2,22.8c-0.2-0.2-0.3-0.5-0.3-0.8s0.1-0.6,0.3-0.8c0.2-0.2,0.5-0.3,0.8-0.3
	s0.6,0.1,0.8,0.3c0.2,0.2,0.3,0.5,0.3,0.8s-0.1,0.6-0.3,0.8c-0.2,0.2-0.5,0.3-0.8,0.3C85.7,23.1,85.3,23,85.2,22.8z M87.8,20.1
	c-0.4-0.4-0.4-1.2,0-1.6l4-4c0.4-0.4,1.2-0.4,1.6,0s0.4,1.2,0,1.6l-4,4c-0.2,0.2-0.5,0.3-0.8,0.3C88.3,20.4,88,20.3,87.8,20.1z
	 M13.9,33.1c-0.2-0.2-0.3-0.5-0.3-0.8c0-0.3,0.1-0.6,0.3-0.8c0.2-0.2,0.5-0.3,0.8-0.3c0.3,0,0.6,0.1,0.8,0.3
	c0.2,0.2,0.3,0.5,0.3,0.8s-0.1,0.6-0.3,0.8c-0.2,0.2-0.5,0.3-0.8,0.3C14.4,33.5,14.1,33.3,13.9,33.1z M19.9,35.6
	c-0.2-0.2-0.3-0.5-0.3-0.8s0.1-0.6,0.3-0.8s0.5-0.3,0.8-0.3c0.3,0,0.6,0.1,0.8,0.3c0.2,0.2,0.3,0.5,0.3,0.8s-0.1,0.6-0.3,0.8
	s-0.5,0.3-0.8,0.3C20.4,36,20.1,35.8,19.9,35.6z M16.9,34.4c-0.2-0.2-0.3-0.5-0.3-0.8s0.1-0.6,0.3-0.8c0.2-0.2,0.5-0.3,0.8-0.3
	c0.3,0,0.6,0.1,0.8,0.3c0.2,0.2,0.3,0.5,0.3,0.8s-0.1,0.6-0.3,0.8c-0.2,0.2-0.5,0.3-0.8,0.3C17.4,34.7,17.1,34.6,16.9,34.4z
	 M72.1,14.1c-0.2-0.2-0.3-0.5-0.3-0.8s0.1-0.6,0.3-0.8c0.2-0.2,0.5-0.3,0.8-0.3s0.6,0.1,0.8,0.3c0.2,0.2,0.3,0.5,0.3,0.8
	s-0.1,0.6-0.3,0.8c-0.2,0.2-0.5,0.3-0.8,0.3C72.6,14.4,72.3,14.3,72.1,14.1z M73.4,10.9c-0.2-0.2-0.3-0.5-0.3-0.8s0.1-0.6,0.3-0.8
	C73.6,9.1,73.9,9,74.2,9s0.6,0.1,0.8,0.3c0.2,0.2,0.3,0.5,0.3,0.8s-0.1,0.6-0.3,0.8c-0.2,0.2-0.5,0.3-0.8,0.3S73.6,11.1,73.4,10.9z
	 M96.5,34.4c-0.2-0.2-0.3-0.5-0.3-0.8s0.1-0.6,0.3-0.8c0.2-0.2,0.5-0.3,0.8-0.3s0.6,0.1,0.8,0.3c0.2,0.2,0.3,0.5,0.3,0.8
	s-0.1,0.6-0.3,0.8c-0.2,0.2-0.5,0.3-0.8,0.3S96.8,34.6,96.5,34.4z M74.8,7.6c-0.2-0.2-0.3-0.5-0.3-0.8s0.1-0.6,0.3-0.8
	c0.2-0.2,0.5-0.3,0.8-0.3s0.6,0.1,0.8,0.3c0.2,0.2,0.3,0.5,0.3,0.8c0,0.3-0.1,0.6-0.3,0.8c-0.2,0.2-0.5,0.3-0.8,0.3
	S74.9,7.8,74.8,7.6z M95.2,34.1c0.2,0.2,0.3,0.5,0.3,0.8s-0.1,0.6-0.3,0.8c-0.3,0.2-0.6,0.3-0.8,0.3c-0.3,0-0.6-0.1-0.8-0.3
	c-0.2-0.2-0.3-0.5-0.3-0.8s0.1-0.6,0.3-0.8c0.2-0.2,0.5-0.3,0.8-0.3C94.5,33.7,94.8,33.9,95.2,34.1z M99.7,33.1
	c-0.2-0.2-0.3-0.5-0.3-0.8c0-0.3,0.1-0.6,0.3-0.8c0.2-0.2,0.5-0.3,0.8-0.3s0.6,0.1,0.8,0.3c0.2,0.2,0.3,0.5,0.3,0.8
	c0,0.3-0.1,0.6-0.3,0.8c-0.2,0.2-0.5,0.3-0.8,0.3C100.2,33.5,99.8,33.3,99.7,33.1z M38.3,7.6C38.1,7.4,38,7.1,38,6.8
	s0.1-0.6,0.3-0.8c0.2-0.2,0.5-0.3,0.8-0.3s0.6,0.1,0.8,0.3c0.2,0.2,0.3,0.5,0.3,0.8c0,0.3-0.1,0.6-0.3,0.8c-0.2,0.2-0.5,0.3-0.8,0.3
	S38.5,7.8,38.3,7.6z M39.6,9.1c0.2-0.2,0.5-0.3,0.8-0.3s0.6,0.1,0.8,0.3c0.2,0.2,0.3,0.5,0.3,0.8c0,0.3-0.1,0.6-0.3,0.8
	S40.7,11,40.4,11s-0.6-0.1-0.8-0.3s-0.3-0.5-0.3-0.8C39.3,9.7,39.4,9.4,39.6,9.1z M40.9,12.3c0.2-0.2,0.5-0.3,0.8-0.3
	c0.3,0,0.6,0.1,0.8,0.3s0.3,0.5,0.3,0.8s-0.1,0.6-0.3,0.8s-0.5,0.3-0.8,0.3s-0.6-0.1-0.8-0.3s-0.3-0.5-0.3-0.8
	C40.6,12.8,40.8,12.5,40.9,12.3z M105.2,50.5c0,0.6-0.5,1.1-1.1,1.1h-2.4V54c0,0.6-0.5,1.1-1.1,1.1s-1.1-0.5-1.1-1.1v-2.4h-2.4
	c-0.6,0-1.1-0.5-1.1-1.1s0.5-1.1,1.1-1.1h2.4V47c0-0.6,0.5-1.1,1.1-1.1s1.1,0.5,1.1,1.1v2.4h2.4C104.7,49.4,105.2,49.9,105.2,50.5z
	 M18.1,51.7h-2.5v2.4c0,0.6-0.5,1.1-1.1,1.1c-0.6,0-1.1-0.5-1.1-1.1v-2.4h-2.5c-0.6,0-1.1-0.5-1.1-1.1s0.5-1.1,1.1-1.1h2.4V47
	c0-0.6,0.5-1.1,1.1-1.1c0.6,0,1.1,0.5,1.1,1.1v2.4h2.4c0.6,0,1.1,0.5,1.1,1.1C19.2,51.2,18.7,51.7,18.1,51.7z M52.6,6.7
	c0-0.6,0.5-1.1,1.1-1.1h2.4V3.1c0-0.6,0.5-1.1,1.1-1.1s1.1,0.5,1.1,1.1v2.4h2.4c0.6,0,1.1,0.5,1.1,1.1s-0.5,1.1-1.1,1.1h-2.4v2.4
	c0,0.6-0.5,1.1-1.1,1.1s-1.1-0.5-1.1-1.1V7.8h-2.3C53.2,7.8,52.6,7.3,52.6,6.7z"/>
</svg>
