<?xml version="1.0" encoding="utf-8"?>
<!-- Generator: Adobe Illustrator 24.1.2, SVG Export Plug-In . SVG Version: 6.00 Build 0)  -->
<svg version="1.1" id="Icons" xmlns="http://www.w3.org/2000/svg" xmlns:xlink="http://www.w3.org/1999/xlink" x="0px" y="0px"
	 width="100px" height="100px" viewBox="0 0 100 100" style="enable-background:new 0 0 100 100;" xml:space="preserve">
<style type="text/css">
	.st0{fill:url(#SVGID_1_);}
</style>
<linearGradient id="SVGID_1_" gradientUnits="userSpaceOnUse" x1="50" y1="0" x2="50" y2="100">
	<stop  offset="0" style="stop-color:#00FBFF"/>
	<stop  offset="1" style="stop-color:#00B1B4"/>
</linearGradient>
<path class="st0" d="M62,20.9c-0.2-0.4-0.6-0.6-1-0.6c-0.4,0-0.8,0.1-1.1,0.5l-4.9,5.8c-0.2-0.2-0.4-0.4-0.7-0.7l-1.8-2
	c1.7-0.9,2.8-2.6,2.8-4.7c0-2.9-2.4-5.3-5.3-5.3c-2.9,0-5.3,2.4-5.3,5.3c0,2,1.2,3.8,2.8,4.7l-1.8,2c-0.2,0.2-0.4,0.5-0.7,0.7
	l-4.9-5.8c-0.3-0.3-0.7-0.5-1.1-0.5c-0.4,0-0.8,0.3-1,0.6c-6.7,10.8-25.1,8.1-25.3,8c-0.6-0.1-1.2,0.2-1.4,0.8
	c-0.2,0.6-0.1,1.2,0.4,1.6C12,31.5,33.4,47,48.7,35.2l0,7.8H26.1c-2.8,0-5.1,2.3-5.1,5.1c0,2.8,2.3,5.1,5.1,5.1h22.5l0,4.9H34.8
	c-2.8,0-5.1,2.3-5.1,5.1c0,2.8,2.3,5.1,5.1,5.1h13.9l0,4.9h-5.3c-2.8,0-5.1,2.3-5.1,5.1c0,2.8,2.3,5.1,5.1,5.1h5.3l0,3.9
	c0,0.7,0.6,1.3,1.3,1.3s1.3-0.6,1.3-1.3l0-3.9h3.8c0.7,0,1.3-0.6,1.3-1.3s-0.6-1.3-1.3-1.3h-3.8l0-4.9h9.3c2.8,0,5.1-2.3,5.1-5.1
	c0-2.8-2.3-5.1-5.1-5.1h-9.3l0-4.9h17.9c2.8,0,5.1-2.3,5.1-5.1c0-2.8-2.3-5.1-5.1-5.1H51.3l0-4.9h24.3c0.5,1.1,1.6,1.9,3,1.9
	c1.8,0,3.2-1.5,3.2-3.2c0-1.8-1.5-3.2-3.2-3.2c-1.3,0-2.4,0.8-3,1.9H51.3l0-7.8c4.2,3.2,8.9,4.4,13.4,4.4c12,0,23.4-8.2,23.5-8.3
	c0.5-0.4,0.7-1,0.4-1.6c-0.2-0.6-0.8-0.9-1.4-0.8C87.1,29,68.7,31.7,62,20.9z M48.7,80.7h-5.3c-1.3,0-2.4-1.1-2.4-2.5
	c0-1.3,1.1-2.4,2.4-2.4h5.3L48.7,80.7z M60.6,68.2c1.3,0,2.4,1.1,2.4,2.5c0,1.3-1.1,2.4-2.4,2.4h-9.3l0-4.9H60.6z M48.7,65.6H34.8
	c-1.3,0-2.4-1.1-2.4-2.5c0-1.3,1.1-2.4,2.4-2.4h13.9L48.7,65.6z M69.2,53.2c1.3,0,2.4,1.1,2.4,2.5c0,1.3-1.1,2.4-2.4,2.4H51.3l0-4.9
	H69.2z M48.7,50.5H26.1c-1.3,0-2.4-1.1-2.4-2.5c0-1.3,1.1-2.4,2.4-2.4h22.5L48.7,50.5z M50,16.5c1.5,0,2.6,1.2,2.6,2.6
	c0,1.5-1.2,2.6-2.6,2.6c-1.5,0-2.6-1.2-2.6-2.6C47.4,17.7,48.5,16.5,50,16.5z M50.9,31.3c-0.5-0.5-1.4-0.5-1.9,0
	c-9.9,9.9-24.1,4.5-31.2,0.6c1.6,0,3.5-0.1,5.4-0.3c7.2-0.9,12.6-3.6,16-7.9l3.8,4.5c-2.5,1.8-5.2,2.7-8.2,2.7
	c-0.7,0-1.3,0.6-1.3,1.3c0,0.7,0.6,1.3,1.3,1.3c4.2,0,7.8-1.4,11-4.2c0,0,0,0,0,0c0,0,0,0,0,0c0.6-0.6,1.2-1.1,1.8-1.8L50,25
	l2.3,2.6c3.7,4,7.9,6,12.9,6c0.7,0,1.3-0.6,1.3-1.3c0-0.7-0.6-1.3-1.3-1.3c-3.1,0-5.8-0.9-8.2-2.7l3.8-4.5c3.4,4.3,8.8,7,16,7.9
	c2,0.2,3.8,0.3,5.4,0.3C75,35.8,60.9,41.3,50.9,31.3z M15.8,24c-0.3-0.2-0.4-0.6-0.4-0.9c0-0.3,0.1-0.7,0.4-0.9
	c0.5-0.5,1.4-0.5,1.9,0c0.2,0.2,0.4,0.6,0.4,0.9c0,0.4-0.1,0.7-0.4,0.9c-0.1,0.1-0.3,0.2-0.4,0.3c-0.2,0.1-0.3,0.1-0.5,0.1
	c-0.2,0-0.4,0-0.5-0.1C16.1,24.2,16,24.1,15.8,24z M55.4,7.5c0.1-0.7,0.8-1.2,1.5-1.1C57.6,6.5,58.1,7.2,58,8
	c-0.1,0.7-0.7,1.1-1.3,1.1c-0.1,0-0.1,0-0.2,0C55.8,8.9,55.3,8.3,55.4,7.5z M42,8c-0.1-0.7,0.4-1.4,1.1-1.5c0.7-0.1,1.4,0.4,1.5,1.1
	c0.1,0.7-0.4,1.4-1.1,1.5c-0.1,0-0.1,0-0.2,0C42.7,9.1,42.1,8.6,42,8z M50.9,7.2c0-0.7,0.7-1.3,1.4-1.3c0.7,0,1.3,0.7,1.3,1.4
	c0,0.7-0.6,1.3-1.3,1.3c0,0,0,0-0.1,0C51.4,8.6,50.9,7.9,50.9,7.2z M46.4,7.4C46.4,6.6,47,6,47.7,6c0.7,0,1.4,0.5,1.4,1.3
	c0,0.7-0.5,1.4-1.3,1.4c0,0,0,0-0.1,0C47.1,8.6,46.5,8.1,46.4,7.4z M64.1,9.6c0.3-0.7,1-1,1.7-0.8c0.7,0.3,1,1,0.8,1.7
	c-0.2,0.5-0.7,0.8-1.2,0.8c-0.2,0-0.3,0-0.5-0.1C64.2,11,63.8,10.3,64.1,9.6z M59.8,8.3c0.2-0.7,0.9-1.1,1.6-0.9
	c0.7,0.2,1.1,0.9,0.9,1.6c-0.2,0.6-0.7,1-1.3,1c-0.1,0-0.2,0-0.3,0C60,9.8,59.6,9,59.8,8.3z M68.2,11.3c0.3-0.7,1.1-0.9,1.8-0.6
	c0.7,0.3,0.9,1.1,0.6,1.8c-0.2,0.5-0.7,0.7-1.2,0.7c-0.2,0-0.4,0-0.6-0.1C68.1,12.7,67.9,11.9,68.2,11.3z M75.9,15.9
	c0.5-0.6,1.3-0.7,1.9-0.2c0.6,0.5,0.7,1.3,0.2,1.9c-0.3,0.3-0.6,0.5-1,0.5c-0.3,0-0.6-0.1-0.8-0.3C75.5,17.3,75.4,16.5,75.9,15.9z
	 M79.3,20.7c-0.5-0.5-0.5-1.4,0-1.9c0.5-0.5,1.4-0.5,1.9,0c0.5,0.5,0.5,1.4,0,1.9c-0.3,0.3-0.6,0.4-0.9,0.4
	C79.9,21.1,79.5,20.9,79.3,20.7z M72.2,13.4c0.4-0.6,1.2-0.8,1.8-0.4c0.6,0.4,0.8,1.2,0.4,1.8c-0.2,0.4-0.7,0.6-1.1,0.6
	c-0.2,0-0.5-0.1-0.7-0.2C71.9,14.8,71.8,14,72.2,13.4z M22.1,17.6c-0.5-0.6-0.4-1.4,0.2-1.9c0.6-0.5,1.4-0.4,1.9,0.2
	c0.5,0.6,0.4,1.4-0.2,1.9c-0.2,0.2-0.5,0.3-0.8,0.3C22.7,18.1,22.3,17.9,22.1,17.6z M25.6,14.8c-0.4-0.6-0.2-1.4,0.4-1.8
	c0.6-0.4,1.4-0.2,1.8,0.4c0.4,0.6,0.2,1.4-0.4,1.8c-0.2,0.1-0.5,0.2-0.7,0.2C26.3,15.4,25.9,15.2,25.6,14.8z M37.6,9
	c-0.2-0.7,0.2-1.4,0.9-1.6c0.7-0.2,1.4,0.2,1.6,0.9C40.4,9,40,9.8,39.3,10C39.2,10,39,10,38.9,10C38.3,10,37.8,9.6,37.6,9z
	 M29.4,12.5c-0.3-0.6-0.1-1.5,0.6-1.8c0.7-0.3,1.5-0.1,1.8,0.6c0.3,0.7,0.1,1.5-0.6,1.8c-0.2,0.1-0.4,0.1-0.6,0.1
	C30.1,13.2,29.6,12.9,29.4,12.5z M18.8,20.7c-0.5-0.5-0.5-1.4,0-1.9c0.5-0.5,1.4-0.5,1.9,0c0.5,0.5,0.5,1.4,0,1.9h0
	c-0.3,0.3-0.6,0.4-0.9,0.4C19.4,21.1,19.1,20.9,18.8,20.7z M33.4,10.5c-0.3-0.7,0.1-1.5,0.8-1.7c0.7-0.3,1.5,0.1,1.7,0.8
	c0.3,0.7-0.1,1.5-0.8,1.7c-0.2,0.1-0.3,0.1-0.5,0.1C34.1,11.4,33.6,11.1,33.4,10.5z M84.2,22.1c0.1,0.1,0.1,0.1,0.2,0.2
	c0,0.1,0.1,0.2,0.1,0.2c0,0.1,0.1,0.2,0.1,0.2c0,0.1,0,0.2,0,0.3c0,0.2,0,0.4-0.1,0.5c-0.1,0.2-0.2,0.3-0.3,0.4
	c-0.2,0.3-0.6,0.4-0.9,0.4c-0.4,0-0.7-0.1-0.9-0.4c-0.1-0.1-0.2-0.3-0.3-0.4c-0.1-0.2-0.1-0.3-0.1-0.5c0-0.1,0-0.2,0-0.3
	c0-0.1,0-0.2,0.1-0.2c0-0.1,0.1-0.2,0.1-0.2c0-0.1,0.1-0.1,0.2-0.2c0.1-0.1,0.1-0.1,0.2-0.2c0.1-0.1,0.2-0.1,0.2-0.1
	c0.1,0,0.2-0.1,0.2-0.1C83.4,21.7,83.9,21.8,84.2,22.1z M46.3,92.6c-0.1,0.7-0.7,1.2-1.3,1.2c-0.1,0-0.1,0-0.2,0
	c-11.7-1.4-22.1-7.2-29.5-16.5c-0.5-0.6-0.4-1.4,0.2-1.9c0.6-0.5,1.4-0.4,1.9,0.2c6.9,8.7,16.7,14.2,27.7,15.5
	C45.9,91.2,46.4,91.9,46.3,92.6z M14.5,71.4c0.4,0.6,0.2,1.4-0.4,1.8c-0.2,0.1-0.5,0.2-0.7,0.2c-0.4,0-0.9-0.2-1.1-0.6
	C8.1,65.9,5.9,58.1,5.9,50c0-4.1,0.6-8.1,1.7-12c0.2-0.7,0.9-1.1,1.6-0.9c0.7,0.2,1.1,0.9,0.9,1.6c-1,3.7-1.6,7.5-1.6,11.3
	C8.6,57.6,10.6,65,14.5,71.4z M89.9,38.7c-0.2-0.7,0.2-1.4,0.9-1.6c0.7-0.2,1.4,0.2,1.6,0.9c1.1,3.9,1.7,7.9,1.7,12
	c0,24.2-19.7,43.9-43.8,44.1c0,0,0,0,0,0c-0.7,0-1.3-0.6-1.3-1.3c0-0.7,0.6-1.3,1.3-1.3C73,91.3,91.4,72.7,91.4,50
	C91.4,46.2,90.9,42.3,89.9,38.7z M50,0C22.4,0,0,22.4,0,50s22.4,50,50,50s50-22.4,50-50S77.6,0,50,0z M50,97.3
	C23.9,97.3,2.7,76.1,2.7,50S23.9,2.7,50,2.7S97.3,23.9,97.3,50S76.1,97.3,50,97.3z"/>
</svg>
