<?xml version="1.0" encoding="utf-8"?>
<!-- Generator: Adobe Illustrator 24.1.2, SVG Export Plug-In . SVG Version: 6.00 Build 0)  -->
<svg version="1.1" id="Icons" xmlns="http://www.w3.org/2000/svg" xmlns:xlink="http://www.w3.org/1999/xlink" x="0px" y="0px"
	 width="115px" height="115px" viewBox="0 0 115 115" style="enable-background:new 0 0 115 115;" xml:space="preserve">
<style type="text/css">
	.st0{fill:url(#SVGID_1_);}
</style>
<linearGradient id="SVGID_1_" gradientUnits="userSpaceOnUse" x1="57.4822" y1="103.45" x2="57.4822" y2="15.4253" gradientTransform="matrix(1 0 0 -1 0 117)">
	<stop  offset="0" style="stop-color:#00FBFF"/>
	<stop  offset="1" style="stop-color:#00B1B4"/>
</linearGradient>
<path class="st0" d="M86.6,50c-0.5,0.5-0.5,1.3,0,1.8l3.4,3.4c0.3,0.3,0.6,0.4,0.9,0.4s0.7-0.1,0.9-0.4l10.3-10.3
	c0.5-0.5,0.5-1.3,0-1.8l-3.4-3.4c-0.5-0.5-1.3-0.5-1.8,0l-0.6,0.6c-0.7,0.7-1.8,0.7-2.5,0l-0.1-0.1c-0.7-0.7-0.7-1.8,0-2.5l0.6-0.6
	c0.2-0.2,0.4-0.6,0.4-0.9c0-0.3-0.1-0.7-0.4-0.9l-2.7-2.8l2.4-2.4c0.5-0.5,0.5-1.3,0-1.8l-8.1-8.1c-0.5-0.5-1.3-0.5-1.8,0l-2.4,2.4
	l-4.4-4.4C71.1,12,61,12,54.8,18.2c-0.5,0.5-0.5,1.3,0,1.8l3.2,3.2c0.5,0.5,1.3,0.5,1.8,0l0.1-0.1c0.9-0.9,2.1-1.4,3.3-1.4
	c1.3,0,2.4,0.5,3.3,1.4c1.9,1.9,1.9,5,0,6.9c-0.5,0.5-0.5,1.3,0,1.8l3,3L53.7,50.5L40.3,37c1.1-4.6-0.1-9.7-3.7-13.3
	c-3.7-3.7-9.1-5.1-14.1-3.5c-0.5,0.1-0.8,0.4-0.9,0.9c-0.1,0.4,0,0.9,0.3,1.2l8.4,8.4l-1.5,5.2l-5.2,1.5L15.2,29
	c-0.3-0.3-0.7-0.5-1.2-0.3c-0.4,0.1-0.8,0.4-0.9,0.9c-1.5,5-0.2,10.4,3.5,14.1c2.7,2.7,6.4,4.1,10,4.1c1.1,0,2.3-0.1,3.4-0.4
	l13.5,13.5L14.9,89.3c-0.5,0.5-0.5,1.3,0,1.8l8.1,8.1c0.2,0.2,0.6,0.4,0.9,0.4c0.3,0,0.7-0.1,0.9-0.4l28.5-28.5L66.6,84
	c-1.1,4.6,0.1,9.7,3.7,13.3c2.7,2.7,6.3,4.1,10,4.1c1.4,0,2.8-0.2,4.1-0.6c0.4-0.1,0.8-0.5,0.9-0.9s0-0.9-0.3-1.2l-8.4-8.4l1.5-5.2
	l5.2-1.5l8.4,8.4c0.3,0.3,0.8,0.4,1.2,0.3c0.4-0.1,0.8-0.4,0.9-0.9c1.5-5,0.2-10.4-3.5-14.1c-3.6-3.6-8.7-4.8-13.3-3.7L63.7,60.4
	l15.7-15.7l2.7,2.7c0.5,0.5,1.3,0.5,1.8,0l0.6-0.6c0.7-0.7,1.8-0.7,2.5,0l0.1,0.1c0.7,0.7,0.7,1.8,0,2.5L86.6,50z M88.9,27l2.3,2.3
	l-1.4,1.4l-2.3-2.2L88.9,27z M84.9,23l2.3,2.3l-1.4,1.4l-2.3-2.3L84.9,23z M51.9,52.3l-2.4,2.4l-12.1-12c0.8-0.9,1.4-1.9,1.9-3
	L51.9,52.3z M18.4,41.8c-2.5-2.5-3.7-5.9-3.3-9.3l7.3,7.3c0.3,0.3,0.8,0.5,1.2,0.3l6.7-1.8c0.4-0.1,0.8-0.5,0.9-0.9l1.8-6.7
	c0.1-0.4,0-0.9-0.3-1.2l-7.3-7.3c3.4-0.3,6.8,0.8,9.3,3.3c4.5,4.5,4.5,11.8,0,16.3l0,0l0,0C30.2,46.3,22.9,46.3,18.4,41.8z
	 M32.6,46.4c1.1-0.5,2.1-1.1,3-1.9l12.1,12l-2.4,2.4L32.6,46.4z M17.6,90.2l37-37l0,0l0,0l16.7-16.7l2.3,2.3L19.9,92.5L17.6,90.2z
	 M55.2,68.9l2.4-2.4l11.9,11.9c-0.8,0.9-1.4,1.9-1.9,3L55.2,68.9z M80.4,75.9c3,0,5.9,1.1,8.2,3.4c2.5,2.5,3.7,5.9,3.3,9.3l-7.3-7.3
	c-0.3-0.3-0.8-0.5-1.2-0.3l-6.7,1.8c-0.4,0.1-0.8,0.5-0.9,0.9L74,90.4c-0.1,0.4,0,0.9,0.3,1.2l7.3,7.3c-3.4,0.3-6.8-0.8-9.3-3.3
	c-4.5-4.5-4.5-11.8,0-16.3C74.5,77,77.4,75.9,80.4,75.9z M74.3,74.7c-1.1,0.5-2.1,1.1-3,1.9L59.4,64.7l2.4-2.4L74.3,74.7z
	 M23.9,96.5l-2.3-2.3l53.7-53.7l2.3,2.3L23.9,96.5z M85.9,43.7c-1,0-2,0.4-2.8,1l-14-13.9c2.1-2.9,1.8-7-0.8-9.6
	c-1.4-1.4-3.2-2.1-5.1-2.1c-1.6,0-3.1,0.5-4.3,1.4l-1.4-1.4c5.2-4.3,13-4,17.9,0.9l16.2,16.2c-1.4,1.7-1.3,4.3,0.3,5.9l0.1,0.1
	c1.6,1.6,4.2,1.7,5.9,0.3l1.6,1.6l-8.6,8.4l-1.6-1.6c1.4-1.7,1.3-4.3-0.3-5.9l-0.1-0.1C88.1,44.2,87,43.7,85.9,43.7z"/>
</svg>
