<?xml version="1.0" encoding="utf-8"?>
<!-- Generator: Adobe Illustrator 24.1.2, SVG Export Plug-In . SVG Version: 6.00 Build 0)  -->
<svg version="1.1" id="Icons" xmlns="http://www.w3.org/2000/svg" xmlns:xlink="http://www.w3.org/1999/xlink" x="0px" y="0px"
	 width="81px" height="114px" viewBox="0 0 81 114" style="enable-background:new 0 0 81 114;" xml:space="preserve">
<style type="text/css">
	.st0{fill:url(#SVGID_1_);}
</style>
<linearGradient id="SVGID_1_" gradientUnits="userSpaceOnUse" x1="40.5055" y1="0" x2="40.5055" y2="114">
	<stop  offset="0" style="stop-color:#00FBFF"/>
	<stop  offset="1" style="stop-color:#00B1B4"/>
</linearGradient>
<path class="st0" d="M74.1,76.8H46c-2.6,0-4.8-2.1-4.8-4.8v-6.5C56.6,64.9,69,52.2,69,36.7v-5.2v-2.4c0-0.6-0.5-1.1-1.1-1.1h-1.8
	V2.7c0-0.6-0.5-1.1-1.1-1.1h-4.3V1.1c0-0.6-0.5-1.1-1.1-1.1H58c-0.3,0-0.6,0.1-0.8,0.3L55.6,2c-0.4,0.4-0.4,1.1,0,1.5l1.5,1.6
	c0.2,0.2,0.5,0.3,0.8,0.3h1.7c0.6,0,1.1-0.5,1.1-1.1V3.8H64v24.3h-1.8c-0.6,0-1.1,0.5-1.1,1.1v2.4v5.2c0,11.6-9.4,21-21,21H40
	c-11.6,0-21-9.4-21-21v-5.2v-2.4c0-0.6-0.5-1.1-1.1-1.1h-1.8V3.8h3.2v0.6c0,0.6,0.5,1.1,1.1,1.1h1.7c0.3,0,0.6-0.1,0.8-0.3l1.5-1.6
	C25,3,25,2.4,24.6,2L23,0.3C22.8,0.1,22.6,0,22.3,0h-1.7c-0.6,0-1.1,0.5-1.1,1.1v0.6h-4.3c-0.6,0-1.1,0.5-1.1,1.1v25.4h-1.8
	c-0.6,0-1.1,0.5-1.1,1.1v2.4v5.2c0,15.6,12.4,28.3,27.8,28.8V72c0,3.8,3.1,6.9,6.9,6.9h28.1c2.6,0,4.8,2.1,4.8,4.8
	c0,2.6-2.1,4.8-4.8,4.8H37.2c-3.8,0-6.9,3.1-6.9,6.9c0,3.8,3.1,6.9,6.9,6.9h28.1c2.6,0,4.8,2.1,4.8,4.8c0,2.6-2.1,4.8-4.8,4.8H17.6
	c-2.6,0-4.8-2.1-4.8-4.8v-5.8c6-0.5,10.7-5.6,10.7-11.7c0-6.5-5.3-11.8-11.8-11.8C5.3,77.8,0,83,0,89.5c0,6.1,4.7,11.2,10.7,11.7
	v5.8c0,3.8,3.1,6.9,6.9,6.9h47.7c3.8,0,6.9-3.1,6.9-6.9s-3.1-6.9-6.9-6.9H37.2c-2.6,0-4.8-2.1-4.8-4.8s2.1-4.8,4.8-4.8h36.9
	c3.8,0,6.9-3.1,6.9-6.9C81,79.9,77.9,76.8,74.1,76.8z M13.4,36.7v-4.1h3.5v4.1c0,12.8,10.4,23.1,23.1,23.1h0.1
	c12.8,0,23.1-10.4,23.1-23.1v-4.1h3.5v4.1c0,14.7-12,26.7-26.7,26.7H40C25.3,63.4,13.4,51.4,13.4,36.7z M11.8,94.7
	c-2.9,0-5.2-2.3-5.2-5.2c0-2.9,2.3-5.2,5.2-5.2c2.9,0,5.2,2.3,5.2,5.2C17,92.4,14.6,94.7,11.8,94.7z M2.2,89.5
	c0-5.3,4.3-9.6,9.6-9.6s9.6,4.3,9.6,9.6c0,4.9-3.7,9-8.6,9.6v-1.8c0-0.2,0-0.3-0.1-0.4c3.6-0.5,6.4-3.6,6.4-7.3
	c0-4.1-3.3-7.3-7.3-7.3s-7.3,3.3-7.3,7.3c0,3.7,2.8,6.8,6.4,7.3c-0.1,0.1-0.1,0.3-0.1,0.4v1.8C5.9,98.6,2.2,94.5,2.2,89.5z
	 M14.6,89.5c0,1.5-1.3,2.8-2.8,2.8c-1.5,0-2.8-1.3-2.8-2.8c0-1.5,1.3-2.8,2.8-2.8C13.3,86.8,14.6,88,14.6,89.5z"/>
</svg>
