<?xml version="1.0" encoding="utf-8"?>
<!-- Generator: Adobe Illustrator 24.1.2, SVG Export Plug-In . SVG Version: 6.00 Build 0)  -->
<svg version="1.1" id="Icons" xmlns="http://www.w3.org/2000/svg" xmlns:xlink="http://www.w3.org/1999/xlink" x="0px" y="0px"
	 width="115px" height="115px" viewBox="0 0 115 115" style="enable-background:new 0 0 115 115;" xml:space="preserve">
<style type="text/css">
	.st0{fill:url(#SVGID_1_);}
</style>
<linearGradient id="SVGID_1_" gradientUnits="userSpaceOnUse" x1="57.5" y1="109.5" x2="57.5" y2="9.5" gradientTransform="matrix(1 0 0 -1 0 117)">
	<stop  offset="0" style="stop-color:#00FBFF"/>
	<stop  offset="1" style="stop-color:#00B1B4"/>
</linearGradient>
<path class="st0" d="M69.5,28.4c-0.2-0.4-0.6-0.6-1-0.6s-0.8,0.1-1.1,0.5l-4.9,5.8c-0.2-0.2-0.4-0.4-0.7-0.7l-1.8-2
	c1.7-0.9,2.8-2.6,2.8-4.7c0-2.9-2.4-5.3-5.3-5.3c-2.9,0-5.3,2.4-5.3,5.3c0,2,1.2,3.8,2.8,4.7l-1.8,2c-0.2,0.2-0.4,0.5-0.7,0.7
	l-4.9-5.8c-0.3-0.3-0.7-0.5-1.1-0.5c-0.4,0-0.8,0.3-1,0.6c-6.7,10.8-25.1,8.1-25.3,8c-0.6-0.1-1.2,0.2-1.4,0.8
	c-0.2,0.6-0.1,1.2,0.4,1.6c0.3,0.2,21.7,15.7,37,3.9v7.8H33.6c-2.8,0-5.1,2.3-5.1,5.1s2.3,5.1,5.1,5.1h22.5v4.9H42.3
	c-2.8,0-5.1,2.3-5.1,5.1s2.3,5.1,5.1,5.1h13.9v4.9h-5.3c-2.8,0-5.1,2.3-5.1,5.1c0,2.8,2.3,5.1,5.1,5.1h5.3v3.9
	c0,0.7,0.6,1.3,1.3,1.3s1.3-0.6,1.3-1.3v-3.9h3.8c0.7,0,1.3-0.6,1.3-1.3s-0.6-1.3-1.3-1.3h-3.8v-4.9h9.3c2.8,0,5.1-2.3,5.1-5.1
	c0-2.8-2.3-5.1-5.1-5.1h-9.3v-4.9h17.9c2.8,0,5.1-2.3,5.1-5.1c0-2.8-2.3-5.1-5.1-5.1H58.8v-4.9h24.3c0.5,1.1,1.6,1.9,3,1.9
	c1.8,0,3.2-1.5,3.2-3.2c0-1.8-1.5-3.2-3.2-3.2c-1.3,0-2.4,0.8-3,1.9H58.8v-7.8c4.2,3.2,8.9,4.4,13.4,4.4c12,0,23.4-8.2,23.5-8.3
	c0.5-0.4,0.7-1,0.4-1.6c-0.2-0.6-0.8-0.9-1.4-0.8C94.6,36.5,76.2,39.2,69.5,28.4z M56.2,88.2h-5.3c-1.3,0-2.4-1.1-2.4-2.5
	c0-1.3,1.1-2.4,2.4-2.4h5.3V88.2z M68.1,75.7c1.3,0,2.4,1.1,2.4,2.5c0,1.3-1.1,2.4-2.4,2.4h-9.3v-4.9H68.1z M56.2,73.1H42.3
	c-1.3,0-2.4-1.1-2.4-2.5c0-1.3,1.1-2.4,2.4-2.4h13.9L56.2,73.1z M76.7,60.7c1.3,0,2.4,1.1,2.4,2.5c0,1.3-1.1,2.4-2.4,2.4H58.8v-4.9
	H76.7z M56.2,58H33.6c-1.3,0-2.4-1.1-2.4-2.5c0-1.3,1.1-2.4,2.4-2.4h22.5L56.2,58z M57.5,24c1.5,0,2.6,1.2,2.6,2.6
	c0,1.5-1.2,2.6-2.6,2.6c-1.5,0-2.6-1.2-2.6-2.6S56,24,57.5,24z M58.4,38.8c-0.5-0.5-1.4-0.5-1.9,0c-9.9,9.9-24.1,4.5-31.2,0.6
	c1.6,0,3.5-0.1,5.4-0.3c7.2-0.9,12.6-3.6,16-7.9l3.8,4.5c-2.5,1.8-5.2,2.7-8.2,2.7c-0.7,0-1.3,0.6-1.3,1.3s0.6,1.3,1.3,1.3
	c4.2,0,7.8-1.4,11-4.2l0,0l0,0c0.6-0.6,1.2-1.1,1.8-1.8l2.4-2.5l2.3,2.6c3.7,4,7.9,6,12.9,6c0.7,0,1.3-0.6,1.3-1.3s-0.6-1.3-1.3-1.3
	c-3.1,0-5.8-0.9-8.2-2.7l3.8-4.5c3.4,4.3,8.8,7,16,7.9c2,0.2,3.8,0.3,5.4,0.3C82.5,43.3,68.4,48.8,58.4,38.8z M23.3,31.5
	c-0.3-0.2-0.4-0.6-0.4-0.9s0.1-0.7,0.4-0.9c0.5-0.5,1.4-0.5,1.9,0c0.2,0.2,0.4,0.6,0.4,0.9c0,0.4-0.1,0.7-0.4,0.9
	c-0.1,0.1-0.3,0.2-0.4,0.3c-0.2,0.1-0.3,0.1-0.5,0.1s-0.4,0-0.5-0.1C23.6,31.7,23.5,31.6,23.3,31.5z M62.9,15
	c0.1-0.7,0.8-1.2,1.5-1.1c0.7,0.1,1.2,0.8,1.1,1.6c-0.1,0.7-0.7,1.1-1.3,1.1c-0.1,0-0.1,0-0.2,0C63.3,16.4,62.8,15.8,62.9,15z
	 M49.5,15.5c-0.1-0.7,0.4-1.4,1.1-1.5c0.7-0.1,1.4,0.4,1.5,1.1c0.1,0.7-0.4,1.4-1.1,1.5c-0.1,0-0.1,0-0.2,0
	C50.2,16.6,49.6,16.1,49.5,15.5z M58.4,14.7c0-0.7,0.7-1.3,1.4-1.3s1.3,0.7,1.3,1.4c0,0.7-0.6,1.3-1.3,1.3c0,0,0,0-0.1,0
	C58.9,16.1,58.4,15.4,58.4,14.7z M53.9,14.9c0-0.8,0.6-1.4,1.3-1.4s1.4,0.5,1.4,1.3c0,0.7-0.5,1.4-1.3,1.4c0,0,0,0-0.1,0
	C54.6,16.1,54,15.6,53.9,14.9z M71.6,17.1c0.3-0.7,1-1,1.7-0.8c0.7,0.3,1,1,0.8,1.7c-0.2,0.5-0.7,0.8-1.2,0.8c-0.2,0-0.3,0-0.5-0.1
	C71.7,18.5,71.3,17.8,71.6,17.1z M67.3,15.8c0.2-0.7,0.9-1.1,1.6-0.9c0.7,0.2,1.1,0.9,0.9,1.6c-0.2,0.6-0.7,1-1.3,1
	c-0.1,0-0.2,0-0.3,0C67.5,17.3,67.1,16.5,67.3,15.8z M75.7,18.8c0.3-0.7,1.1-0.9,1.8-0.6c0.7,0.3,0.9,1.1,0.6,1.8
	c-0.2,0.5-0.7,0.7-1.2,0.7c-0.2,0-0.4,0-0.6-0.1C75.6,20.2,75.4,19.4,75.7,18.8z M83.4,23.4c0.5-0.6,1.3-0.7,1.9-0.2
	s0.7,1.3,0.2,1.9c-0.3,0.3-0.6,0.5-1,0.5c-0.3,0-0.6-0.1-0.8-0.3C83,24.8,82.9,24,83.4,23.4z M86.8,28.2c-0.5-0.5-0.5-1.4,0-1.9
	s1.4-0.5,1.9,0s0.5,1.4,0,1.9c-0.3,0.3-0.6,0.4-0.9,0.4C87.4,28.6,87,28.4,86.8,28.2z M79.7,20.9c0.4-0.6,1.2-0.8,1.8-0.4
	c0.6,0.4,0.8,1.2,0.4,1.8c-0.2,0.4-0.7,0.6-1.1,0.6c-0.2,0-0.5-0.1-0.7-0.2C79.4,22.3,79.3,21.5,79.7,20.9z M29.6,25.1
	c-0.5-0.6-0.4-1.4,0.2-1.9s1.4-0.4,1.9,0.2c0.5,0.6,0.4,1.4-0.2,1.9c-0.2,0.2-0.5,0.3-0.8,0.3C30.2,25.6,29.8,25.4,29.6,25.1z
	 M33.1,22.3c-0.4-0.6-0.2-1.4,0.4-1.8c0.6-0.4,1.4-0.2,1.8,0.4s0.2,1.4-0.4,1.8c-0.2,0.1-0.5,0.2-0.7,0.2
	C33.8,22.9,33.4,22.7,33.1,22.3z M45.1,16.5c-0.2-0.7,0.2-1.4,0.9-1.6c0.7-0.2,1.4,0.2,1.6,0.9c0.3,0.7-0.1,1.5-0.8,1.7
	c-0.1,0-0.3,0-0.4,0C45.8,17.5,45.3,17.1,45.1,16.5z M36.9,20c-0.3-0.6-0.1-1.5,0.6-1.8c0.7-0.3,1.5-0.1,1.8,0.6s0.1,1.5-0.6,1.8
	c-0.2,0.1-0.4,0.1-0.6,0.1C37.6,20.7,37.1,20.4,36.9,20z M26.3,28.2c-0.5-0.5-0.5-1.4,0-1.9s1.4-0.5,1.9,0s0.5,1.4,0,1.9l0,0
	c-0.3,0.3-0.6,0.4-0.9,0.4C26.9,28.6,26.6,28.4,26.3,28.2z M40.9,18c-0.3-0.7,0.1-1.5,0.8-1.7c0.7-0.3,1.5,0.1,1.7,0.8
	c0.3,0.7-0.1,1.5-0.8,1.7c-0.2,0.1-0.3,0.1-0.5,0.1C41.6,18.9,41.1,18.6,40.9,18z M91.7,29.6c0.1,0.1,0.1,0.1,0.2,0.2
	c0,0.1,0.1,0.2,0.1,0.2c0,0.1,0.1,0.2,0.1,0.2c0,0.1,0,0.2,0,0.3c0,0.2,0,0.4-0.1,0.5c-0.1,0.2-0.2,0.3-0.3,0.4
	c-0.2,0.3-0.6,0.4-0.9,0.4c-0.4,0-0.7-0.1-0.9-0.4c-0.1-0.1-0.2-0.3-0.3-0.4c-0.1-0.2-0.1-0.3-0.1-0.5c0-0.1,0-0.2,0-0.3
	c0-0.1,0-0.2,0.1-0.2c0-0.1,0.1-0.2,0.1-0.2c0-0.1,0.1-0.1,0.2-0.2s0.1-0.1,0.2-0.2s0.2-0.1,0.2-0.1c0.1,0,0.2-0.1,0.2-0.1
	C90.9,29.2,91.4,29.3,91.7,29.6z M53.8,100.1c-0.1,0.7-0.7,1.2-1.3,1.2c-0.1,0-0.1,0-0.2,0c-11.7-1.4-22.1-7.2-29.5-16.5
	c-0.5-0.6-0.4-1.4,0.2-1.9c0.6-0.5,1.4-0.4,1.9,0.2c6.9,8.7,16.7,14.2,27.7,15.5C53.4,98.7,53.9,99.4,53.8,100.1z M22,78.9
	c0.4,0.6,0.2,1.4-0.4,1.8c-0.2,0.1-0.5,0.2-0.7,0.2c-0.4,0-0.9-0.2-1.1-0.6c-4.2-6.9-6.4-14.7-6.4-22.8c0-4.1,0.6-8.1,1.7-12
	c0.2-0.7,0.9-1.1,1.6-0.9c0.7,0.2,1.1,0.9,0.9,1.6c-1,3.7-1.6,7.5-1.6,11.3C16.1,65.1,18.1,72.5,22,78.9z M97.4,46.2
	c-0.2-0.7,0.2-1.4,0.9-1.6c0.7-0.2,1.4,0.2,1.6,0.9c1.1,3.9,1.7,7.9,1.7,12c0,24.2-19.7,43.9-43.8,44.1l0,0c-0.7,0-1.3-0.6-1.3-1.3
	c0-0.7,0.6-1.3,1.3-1.3c22.7-0.2,41.1-18.8,41.1-41.5C98.9,53.7,98.4,49.8,97.4,46.2z M57.5,7.5c-27.6,0-50,22.4-50,50
	s22.4,50,50,50s50-22.4,50-50S85.1,7.5,57.5,7.5z M57.5,104.8c-26.1,0-47.3-21.2-47.3-47.3s21.2-47.3,47.3-47.3s47.3,21.2,47.3,47.3
	S83.6,104.8,57.5,104.8z"/>
</svg>
