<?xml version="1.0" encoding="utf-8"?>
<!-- Generator: Adobe Illustrator 24.1.2, SVG Export Plug-In . SVG Version: 6.00 Build 0)  -->
<svg version="1.1" id="Icons" xmlns="http://www.w3.org/2000/svg" xmlns:xlink="http://www.w3.org/1999/xlink" x="0px" y="0px"
	 width="90px" height="88px" viewBox="0 0 90 88" style="enable-background:new 0 0 90 88;" xml:space="preserve">
<style type="text/css">
	.st0{fill:url(#SVGID_1_);}
</style>
<linearGradient id="SVGID_1_" gradientUnits="userSpaceOnUse" x1="45" y1="0" x2="45" y2="88.0247">
	<stop  offset="0" style="stop-color:#00FBFF"/>
	<stop  offset="1" style="stop-color:#00B1B4"/>
</linearGradient>
<path class="st0" d="M74.1,36.5c-0.5,0.5-0.5,1.3,0,1.8l3.4,3.4c0.3,0.3,0.6,0.4,0.9,0.4s0.7-0.1,0.9-0.4l10.3-10.3
	c0.5-0.5,0.5-1.3,0-1.8l-3.4-3.4c-0.5-0.5-1.3-0.5-1.8,0l-0.6,0.6c-0.7,0.7-1.8,0.7-2.5,0l-0.1-0.1c-0.7-0.7-0.7-1.8,0-2.5l0.6-0.6
	c0.2-0.2,0.4-0.6,0.4-0.9c0-0.3-0.1-0.7-0.4-0.9L79.1,19l2.4-2.4c0.5-0.5,0.5-1.3,0-1.8l-8.1-8.1c-0.5-0.5-1.3-0.5-1.8,0l-2.4,2.4
	l-4.4-4.4c-6.2-6.2-16.3-6.2-22.5,0c-0.5,0.5-0.5,1.3,0,1.8l3.2,3.2c0.5,0.5,1.3,0.5,1.8,0l0.1-0.1c0.9-0.9,2.1-1.4,3.3-1.4
	c1.3,0,2.4,0.5,3.3,1.4c1.9,1.9,1.9,5,0,6.9c-0.5,0.5-0.5,1.3,0,1.8l3,3L41.2,37L27.8,23.5c1.1-4.6-0.1-9.7-3.7-13.3
	C20.4,6.5,15,5.1,10,6.7C9.5,6.8,9.2,7.1,9.1,7.6C9,8,9.1,8.5,9.4,8.8l8.4,8.4l-1.5,5.2l-5.2,1.5l-8.4-8.4C2.4,15.2,2,15,1.5,15.2
	c-0.4,0.1-0.8,0.4-0.9,0.9c-1.5,5-0.2,10.4,3.5,14.1c2.7,2.7,6.4,4.1,10,4.1c1.1,0,2.3-0.1,3.4-0.4l13.5,13.5L2.4,75.8
	c-0.5,0.5-0.5,1.3,0,1.8l8.1,8.1c0.2,0.2,0.6,0.4,0.9,0.4c0.3,0,0.7-0.1,0.9-0.4l28.5-28.5l13.3,13.3c-1.1,4.6,0.1,9.7,3.7,13.3
	c2.7,2.7,6.3,4.1,10,4.1c1.4,0,2.8-0.2,4.1-0.6c0.4-0.1,0.8-0.5,0.9-0.9c0.1-0.4,0-0.9-0.3-1.2l-8.4-8.4l1.5-5.2l5.2-1.5l8.4,8.4
	c0.3,0.3,0.8,0.4,1.2,0.3c0.4-0.1,0.8-0.4,0.9-0.9c1.5-5,0.2-10.4-3.5-14.1c-3.6-3.6-8.7-4.8-13.3-3.7L51.2,46.9l15.7-15.7l2.7,2.7
	c0.5,0.5,1.3,0.5,1.8,0l0.6-0.6c0.7-0.7,1.8-0.7,2.5,0l0.1,0.1c0.7,0.7,0.7,1.8,0,2.5L74.1,36.5z M76.4,13.5l2.3,2.3l-1.4,1.4L75,15
	L76.4,13.5z M72.4,9.5l2.3,2.3l-1.4,1.4l-2.3-2.3L72.4,9.5z M39.4,38.8L37,41.2L24.9,29.2c0.8-0.9,1.4-1.9,1.9-3L39.4,38.8z
	 M5.9,28.3c-2.5-2.5-3.7-5.9-3.3-9.3l7.3,7.3c0.3,0.3,0.8,0.5,1.2,0.3l6.7-1.8c0.4-0.1,0.8-0.5,0.9-0.9l1.8-6.7
	c0.1-0.4,0-0.9-0.3-1.2l-7.3-7.3c3.4-0.3,6.8,0.8,9.3,3.3c4.5,4.5,4.5,11.8,0,16.3c0,0,0,0,0,0c0,0,0,0,0,0
	C17.7,32.8,10.4,32.8,5.9,28.3z M20.1,32.9c1.1-0.5,2.1-1.1,3-1.9L35.2,43l-2.4,2.4L20.1,32.9z M5.1,76.7l37-37c0,0,0,0,0,0
	c0,0,0,0,0,0L58.8,23l2.3,2.3L7.4,79L5.1,76.7z M42.7,55.4l2.4-2.4l11.9,11.9c-0.8,0.9-1.4,1.9-1.9,3L42.7,55.4z M67.9,62.4
	c3,0,5.9,1.1,8.2,3.4c2.5,2.5,3.7,5.9,3.3,9.3l-7.3-7.3c-0.3-0.3-0.8-0.5-1.2-0.3l-6.7,1.8c-0.4,0.1-0.8,0.5-0.9,0.9l-1.8,6.7
	c-0.1,0.4,0,0.9,0.3,1.2l7.3,7.3c-3.4,0.3-6.8-0.8-9.3-3.3c-4.5-4.5-4.5-11.8,0-16.3C62,63.5,64.9,62.4,67.9,62.4z M61.8,61.2
	c-1.1,0.5-2.1,1.1-3,1.9L46.9,51.2l2.4-2.4L61.8,61.2z M11.4,83l-2.3-2.3l53.7-53.7l2.3,2.3L11.4,83z M73.4,30.2c-1,0-2,0.4-2.8,1
	L56.6,17.3c2.1-2.9,1.8-7-0.8-9.6c-1.4-1.4-3.2-2.1-5.1-2.1c-1.6,0-3.1,0.5-4.3,1.4L45,5.6c5.2-4.3,13-4,17.9,0.9l16.2,16.2
	c-1.4,1.7-1.3,4.3,0.3,5.9l0.1,0.1c1.6,1.6,4.2,1.7,5.9,0.3l1.6,1.6L78.4,39l-1.6-1.6c1.4-1.7,1.3-4.3-0.3-5.9l-0.1-0.1
	C75.6,30.7,74.5,30.2,73.4,30.2z"/>
</svg>
